<svg width="49" height="30" viewBox="0 0 49 30" fill="none" xmlns="http://www.w3.org/2000/svg">
<g id="Frame" clip-path="url(#clip0_323_8669)">
<path id="Vector" d="M19.7708 22.631L15.1954 12.8867L10.6201 22.631C10.3031 23.3034 10.1387 24.0377 10.1387 24.7811C10.1387 25.5245 10.3031 26.2588 10.6201 26.9312C11.0283 27.8005 11.6758 28.5355 12.4866 29.0502C13.2975 29.5648 14.2381 29.8378 15.1985 29.8372C16.0497 29.8369 16.8871 29.6217 17.633 29.2115C18.3788 28.8013 19.009 28.2093 19.465 27.4906C19.9211 26.7719 20.1882 25.9496 20.2417 25.1C20.2951 24.2505 20.1331 23.4012 19.7708 22.631Z" fill="#BC42B9"/>
<g id="Vector_2">
<path d="M10.62 22.6313L15.1954 12.887L10.5118 2.9078C9.92192 1.72693 8.89373 0.823474 7.6468 0.390357C6.39986 -0.0427603 5.03301 0.0287847 3.83811 0.589715C2.64321 1.15064 1.71496 2.1565 1.25157 3.39251C0.78818 4.62851 0.826381 5.9967 1.35801 7.20492L10.6324 26.9284C10.3139 26.2573 10.1476 25.5241 10.1455 24.7812C10.1434 24.0384 10.3054 23.3042 10.62 22.6313Z" fill="#CC99FF"/>
<path d="M10.62 22.6313L15.1954 12.887L10.5118 2.9078C9.92192 1.72693 8.89373 0.823474 7.6468 0.390357C6.39986 -0.0427603 5.03301 0.0287847 3.83811 0.589715C2.64321 1.15064 1.71496 2.1565 1.25157 3.39251C0.78818 4.62851 0.826381 5.9967 1.35801 7.20492L10.6324 26.9284C10.3139 26.2573 10.1476 25.5241 10.1455 24.7812C10.1434 24.0384 10.3054 23.3042 10.62 22.6313Z" fill="#33CCFF"/>
<path d="M10.62 22.6313L15.1954 12.887L10.5118 2.9078C9.92192 1.72693 8.89373 0.823474 7.6468 0.390357C6.39986 -0.0427603 5.03301 0.0287847 3.83811 0.589715C2.64321 1.15064 1.71496 2.1565 1.25157 3.39251C0.78818 4.62851 0.826381 5.9967 1.35801 7.20492L10.6324 26.9284C10.3139 26.2573 10.1476 25.5241 10.1455 24.7812C10.1434 24.0384 10.3054 23.3042 10.62 22.6313Z" fill="#6666CC"/>
<path d="M10.62 22.6313L15.1954 12.887L10.5118 2.9078C9.92192 1.72693 8.89373 0.823474 7.6468 0.390357C6.39986 -0.0427603 5.03301 0.0287847 3.83811 0.589715C2.64321 1.15064 1.71496 2.1565 1.25157 3.39251C0.78818 4.62851 0.826381 5.9967 1.35801 7.20492L10.6324 26.9284C10.3139 26.2573 10.1476 25.5241 10.1455 24.7812C10.1434 24.0384 10.3054 23.3042 10.62 22.6313Z" fill="#333333"/>
<path d="M10.62 22.6313L15.1954 12.887L10.5118 2.9078C9.92192 1.72693 8.89373 0.823474 7.6468 0.390357C6.39986 -0.0427603 5.03301 0.0287847 3.83811 0.589715C2.64321 1.15064 1.71496 2.1565 1.25157 3.39251C0.78818 4.62851 0.826381 5.9967 1.35801 7.20492L10.6324 26.9284C10.3139 26.2573 10.1476 25.5241 10.1455 24.7812C10.1434 24.0384 10.3054 23.3042 10.62 22.6313Z" fill="#FF66CC"/>
<path d="M10.62 22.6313L15.1954 12.887L10.5118 2.9078C9.92192 1.72693 8.89373 0.823474 7.6468 0.390357C6.39986 -0.0427603 5.03301 0.0287847 3.83811 0.589715C2.64321 1.15064 1.71496 2.1565 1.25157 3.39251C0.78818 4.62851 0.826381 5.9967 1.35801 7.20492L10.6324 26.9284C10.3139 26.2573 10.1476 25.5241 10.1455 24.7812C10.1434 24.0384 10.3054 23.3042 10.62 22.6313Z" fill="#CC99FF"/>
</g>
<path id="Vector_3" d="M29.0322 7.2046C29.3939 6.43427 29.5552 5.58509 29.5012 4.7358C29.4472 3.88651 29.1797 3.06459 28.7234 2.34627C28.2671 1.62794 27.6368 1.03645 26.8909 0.626633C26.1451 0.21682 25.3079 0.00195312 24.4569 0.00195312C23.6059 0.00195313 22.7686 0.21682 22.0228 0.626633C21.277 1.03645 20.6467 1.62794 20.1904 2.34627C19.7341 3.06459 19.4665 3.88651 19.4125 4.7358C19.3585 5.58509 19.5199 6.43427 19.8815 7.2046L24.4569 16.9489L29.0322 7.2046Z" fill="#6B66C4"/>
<path id="Vector_4" d="M19.882 7.20451C19.5649 6.53206 19.4005 5.79783 19.4005 5.0544C19.4005 4.31098 19.5649 3.57674 19.882 2.9043L15.1953 12.8866L19.7707 22.6309C20.0883 23.3031 20.2531 24.0374 20.2531 24.781C20.2531 25.5245 20.0883 26.2588 19.7707 26.9311L24.4573 16.9488L19.882 7.20451Z" fill="#FF6FBC"/>
<path id="Vector_5" d="M29.1449 22.631L33.7202 12.8867L38.2863 22.631C38.6033 23.3034 38.7677 24.0377 38.7677 24.7811C38.7677 25.5245 38.6033 26.2588 38.2863 26.9312C37.7165 28.1447 36.6879 29.0821 35.427 29.5372C34.166 29.9923 32.7759 29.9278 31.5624 29.358C30.3489 28.7882 29.4116 27.7596 28.9564 26.4986C28.5013 25.2377 28.5658 23.8475 29.1356 22.6341L29.1449 22.631Z" fill="#6B66C4"/>
<path id="Vector_6" d="M38.2863 22.631L33.7109 12.8868L38.4069 2.90756C38.9767 1.69369 40.0054 0.755902 41.2667 0.300501C42.5279 -0.154901 43.9185 -0.0906138 45.1323 0.47922C46.3462 1.04905 47.284 2.07776 47.7394 3.33903C48.1948 4.60029 48.1305 5.99081 47.5607 7.20468L38.2863 26.9282C38.6028 26.2561 38.767 25.5225 38.767 24.7796C38.767 24.0368 38.6028 23.3031 38.2863 22.631Z" fill="#FF6FBC"/>
<path id="Vector_7" d="M29.0324 7.20451C29.3486 6.53183 29.5125 5.79769 29.5125 5.0544C29.5125 4.31112 29.3486 3.57698 29.0324 2.9043L33.719 12.8835L29.1437 22.6309C28.8275 23.3036 28.6636 24.0377 28.6636 24.781C28.6636 25.5243 28.8275 26.2584 29.1437 26.9311L24.457 16.9488L29.0324 7.20451Z" fill="#4CC8E9"/>
</g>
<defs>
<clipPath id="clip0_323_8669">
<rect width="47.1093" height="29.8401" fill="white" transform="translate(0.929688)"/>
</clipPath>
</defs>
</svg>
