<svg width="31" height="19" viewBox="0 0 31 19" fill="none" xmlns="http://www.w3.org/2000/svg">
<g clip-path="url(#clip0_513_10643)">
<g clip-path="url(#clip1_513_10643)">
<path d="M11.8571 14.2421L8.97772 8.10986L6.09837 14.2421C5.89887 14.6653 5.79541 15.1273 5.79541 15.5952C5.79541 16.063 5.89887 16.5251 6.09837 16.9483C6.35528 17.4954 6.76273 17.9579 7.27301 18.2818C7.78329 18.6057 8.37528 18.7775 8.97966 18.7771C9.51535 18.7769 10.0423 18.6415 10.5117 18.3833C10.9811 18.1252 11.3776 17.7527 11.6646 17.3003C11.9516 16.848 12.1197 16.3305 12.1534 15.7959C12.187 15.2613 12.0851 14.7268 11.8571 14.2421Z" fill="#BC42B9"/>
<path d="M6.09829 14.2421L8.97764 8.10991L6.03019 1.82982C5.65896 1.08667 5.01191 0.518116 4.22719 0.245548C3.44247 -0.0270199 2.58229 0.0180045 1.83032 0.371007C1.07835 0.72401 0.494183 1.35701 0.202565 2.13485C-0.0890528 2.91269 -0.0650123 3.77372 0.269553 4.53407L6.10607 16.9464C5.90564 16.524 5.80102 16.0626 5.79967 15.5951C5.79833 15.1276 5.9003 14.6656 6.09829 14.2421Z" fill="#CC99FF"/>
<path d="M6.09829 14.2421L8.97764 8.10991L6.03019 1.82982C5.65896 1.08667 5.01191 0.518116 4.22719 0.245548C3.44247 -0.0270199 2.58229 0.0180045 1.83032 0.371007C1.07835 0.72401 0.494183 1.35701 0.202565 2.13485C-0.0890528 2.91269 -0.0650123 3.77372 0.269553 4.53407L6.10607 16.9464C5.90564 16.524 5.80102 16.0626 5.79967 15.5951C5.79833 15.1276 5.9003 14.6656 6.09829 14.2421Z" fill="#33CCFF"/>
<path d="M6.09829 14.2421L8.97764 8.10991L6.03019 1.82982C5.65896 1.08667 5.01191 0.518116 4.22719 0.245548C3.44247 -0.0270199 2.58229 0.0180045 1.83032 0.371007C1.07835 0.72401 0.494183 1.35701 0.202565 2.13485C-0.0890528 2.91269 -0.0650123 3.77372 0.269553 4.53407L6.10607 16.9464C5.90564 16.524 5.80102 16.0626 5.79967 15.5951C5.79833 15.1276 5.9003 14.6656 6.09829 14.2421Z" fill="#6666CC"/>
<path d="M6.09829 14.2421L8.97764 8.10991L6.03019 1.82982C5.65896 1.08667 5.01191 0.518116 4.22719 0.245548C3.44247 -0.0270199 2.58229 0.0180045 1.83032 0.371007C1.07835 0.72401 0.494183 1.35701 0.202565 2.13485C-0.0890528 2.91269 -0.0650123 3.77372 0.269553 4.53407L6.10607 16.9464C5.90564 16.524 5.80102 16.0626 5.79967 15.5951C5.79833 15.1276 5.9003 14.6656 6.09829 14.2421Z" fill="#333333"/>
<path d="M6.09829 14.2421L8.97764 8.10991L6.03019 1.82982C5.65896 1.08667 5.01191 0.518116 4.22719 0.245548C3.44247 -0.0270199 2.58229 0.0180045 1.83032 0.371007C1.07835 0.72401 0.494183 1.35701 0.202565 2.13485C-0.0890528 2.91269 -0.0650123 3.77372 0.269553 4.53407L6.10607 16.9464C5.90564 16.524 5.80102 16.0626 5.79967 15.5951C5.79833 15.1276 5.9003 14.6656 6.09829 14.2421Z" fill="#FF66CC"/>
<path d="M6.09829 14.2421L8.97764 8.10991L6.03019 1.82982C5.65896 1.08667 5.01191 0.518116 4.22719 0.245548C3.44247 -0.0270199 2.58229 0.0180045 1.83032 0.371007C1.07835 0.72401 0.494183 1.35701 0.202565 2.13485C-0.0890528 2.91269 -0.0650123 3.77372 0.269553 4.53407L6.10607 16.9464C5.90564 16.524 5.80102 16.0626 5.79967 15.5951C5.79833 15.1276 5.9003 14.6656 6.09829 14.2421Z" fill="#CC99FF"/>
<path d="M17.6857 4.53397C17.9133 4.04918 18.0149 3.51478 17.9809 2.98031C17.9469 2.44584 17.7785 1.92859 17.4914 1.47654C17.2042 1.02448 16.8076 0.652244 16.3382 0.394342C15.8688 0.13644 15.3419 0.0012207 14.8064 0.0012207C14.2708 0.0012207 13.744 0.13644 13.2746 0.394342C12.8052 0.652244 12.4086 1.02448 12.1214 1.47654C11.8343 1.92859 11.6659 2.44584 11.6319 2.98031C11.5979 3.51478 11.6994 4.04918 11.927 4.53397L14.8064 10.6662L17.6857 4.53397Z" fill="#6B66C4"/>
<path d="M11.9269 4.53408C11.7274 4.11089 11.624 3.64883 11.624 3.18098C11.624 2.71313 11.7274 2.25106 11.9269 1.82788L8.97754 8.10992L11.8569 14.2421C12.0568 14.6652 12.1605 15.1273 12.1605 15.5952C12.1605 16.0632 12.0568 16.5253 11.8569 16.9483L14.8063 10.6663L11.9269 4.53408Z" fill="#FF6FBC"/>
<path d="M17.7558 14.2421L20.6351 8.10986L23.5086 14.2421C23.7081 14.6653 23.8116 15.1273 23.8116 15.5952C23.8116 16.063 23.7081 16.5251 23.5086 16.9483C23.15 17.7119 22.5027 18.3019 21.7092 18.5883C20.9156 18.8747 20.0408 18.8341 19.2771 18.4755C18.5135 18.1169 17.9236 17.4696 17.6372 16.6761C17.3507 15.8825 17.3913 15.0077 17.7499 14.244L17.7558 14.2421Z" fill="#6B66C4"/>
<path d="M23.5085 14.2421L20.6292 8.10987L23.5844 1.82978C23.943 1.06587 24.5904 0.475702 25.3841 0.18911C26.1778 -0.0974819 27.0529 -0.0570248 27.8168 0.301581C28.5807 0.660187 29.1709 1.30757 29.4575 2.10131C29.7441 2.89504 29.7036 3.77012 29.345 4.53403L23.5085 16.9463C23.7077 16.5234 23.811 16.0617 23.811 15.5942C23.811 15.1267 23.7077 14.665 23.5085 14.2421Z" fill="#FF6FBC"/>
<path d="M17.6857 4.53408C17.8847 4.11075 17.9879 3.64874 17.9879 3.18098C17.9879 2.71322 17.8847 2.25121 17.6857 1.82788L20.6351 8.10797L17.7558 14.2421C17.5568 14.6655 17.4536 15.1275 17.4536 15.5952C17.4536 16.063 17.5568 16.525 17.7558 16.9483L14.8064 10.6663L17.6857 4.53408Z" fill="#4CC8E9"/>
</g>
</g>
<defs>
<clipPath id="clip0_513_10643">
<rect width="31" height="18.8795" fill="white"/>
</clipPath>
<clipPath id="clip1_513_10643">
<rect width="29.6467" height="18.7789" fill="white"/>
</clipPath>
</defs>
</svg>
