<svg width="77" height="34" viewBox="0 0 77 34" fill="none" xmlns="http://www.w3.org/2000/svg">
<g clip-path="url(#clip0_109_37638)">
<g clip-path="url(#clip1_109_37638)">
<path d="M35.4436 13.7457L32.6647 7.82722L29.8857 13.7457C29.6931 14.1541 29.5933 14.6001 29.5933 15.0516C29.5933 15.5032 29.6931 15.9491 29.8857 16.3576C30.1336 16.8856 30.5269 17.332 31.0194 17.6446C31.5119 17.9572 32.0832 18.123 32.6665 18.1226C33.1835 18.1225 33.6921 17.9918 34.1452 17.7426C34.5982 17.4934 34.9809 17.1339 35.2579 16.6974C35.5349 16.2608 35.6972 15.7614 35.7296 15.2454C35.7621 14.7294 35.6637 14.2135 35.4436 13.7457Z" fill="#BC42B9"/>
<path d="M29.8857 13.7457L32.6647 7.82722L29.82 1.76602C29.4617 1.04878 28.8372 0.50004 28.0799 0.236972C27.3225 -0.0260952 26.4923 0.0173599 25.7665 0.358059C25.0408 0.698757 24.477 1.3097 24.1955 2.06042C23.9141 2.81115 23.9373 3.64216 24.2602 4.37602L29.8932 16.3557C29.6998 15.9481 29.5988 15.5027 29.5975 15.0515C29.5962 14.6004 29.6946 14.1544 29.8857 13.7457Z" fill="#CC99FF"/>
<path d="M29.8857 13.7457L32.6647 7.82722L29.82 1.76602C29.4617 1.04878 28.8372 0.50004 28.0799 0.236972C27.3225 -0.0260952 26.4923 0.0173599 25.7665 0.358059C25.0408 0.698757 24.477 1.3097 24.1955 2.06042C23.9141 2.81115 23.9373 3.64216 24.2602 4.37602L29.8932 16.3557C29.6998 15.9481 29.5988 15.5027 29.5975 15.0515C29.5962 14.6004 29.6946 14.1544 29.8857 13.7457Z" fill="#33CCFF"/>
<path d="M29.8857 13.7457L32.6647 7.82722L29.82 1.76602C29.4617 1.04878 28.8372 0.50004 28.0799 0.236972C27.3225 -0.0260952 26.4923 0.0173599 25.7665 0.358059C25.0408 0.698757 24.477 1.3097 24.1955 2.06042C23.9141 2.81115 23.9373 3.64216 24.2602 4.37602L29.8932 16.3557C29.6998 15.9481 29.5988 15.5027 29.5975 15.0515C29.5962 14.6004 29.6946 14.1544 29.8857 13.7457Z" fill="#6666CC"/>
<path d="M29.8857 13.7457L32.6647 7.82722L29.82 1.76602C29.4617 1.04878 28.8372 0.50004 28.0799 0.236972C27.3225 -0.0260952 26.4923 0.0173599 25.7665 0.358059C25.0408 0.698757 24.477 1.3097 24.1955 2.06042C23.9141 2.81115 23.9373 3.64216 24.2602 4.37602L29.8932 16.3557C29.6998 15.9481 29.5988 15.5027 29.5975 15.0515C29.5962 14.6004 29.6946 14.1544 29.8857 13.7457Z" fill="#333333"/>
<path d="M29.8857 13.7457L32.6647 7.82722L29.82 1.76602C29.4617 1.04878 28.8372 0.50004 28.0799 0.236972C27.3225 -0.0260952 26.4923 0.0173599 25.7665 0.358059C25.0408 0.698757 24.477 1.3097 24.1955 2.06042C23.9141 2.81115 23.9373 3.64216 24.2602 4.37602L29.8932 16.3557C29.6998 15.9481 29.5988 15.5027 29.5975 15.0515C29.5962 14.6004 29.6946 14.1544 29.8857 13.7457Z" fill="#FF66CC"/>
<path d="M29.8857 13.7457L32.6647 7.82722L29.82 1.76602C29.4617 1.04878 28.8372 0.50004 28.0799 0.236972C27.3225 -0.0260952 26.4923 0.0173599 25.7665 0.358059C25.0408 0.698757 24.477 1.3097 24.1955 2.06042C23.9141 2.81115 23.9373 3.64216 24.2602 4.37602L29.8932 16.3557C29.6998 15.9481 29.5988 15.5027 29.5975 15.0515C29.5962 14.6004 29.6946 14.1544 29.8857 13.7457Z" fill="#CC99FF"/>
<path d="M41.0692 4.37602C41.2889 3.90813 41.3869 3.39236 41.3541 2.87651C41.3213 2.36067 41.1588 1.86145 40.8816 1.42515C40.6045 0.988852 40.2217 0.629591 39.7687 0.380678C39.3157 0.131765 38.8071 0.00125885 38.2902 0.00125885C37.7734 0.00125885 37.2648 0.131765 36.8118 0.380678C36.3588 0.629591 35.976 0.988852 35.6989 1.42515C35.4217 1.86145 35.2592 2.36067 35.2264 2.87651C35.1936 3.39236 35.2916 3.90813 35.5113 4.37602L38.2902 10.2945L41.0692 4.37602Z" fill="#6B66C4"/>
<path d="M35.5111 4.37602C35.3186 3.96758 35.2187 3.52163 35.2187 3.07008C35.2187 2.61854 35.3186 2.17258 35.5111 1.76414L32.6646 7.82722L35.4435 13.7457C35.6365 14.154 35.7365 14.6 35.7365 15.0516C35.7365 15.5033 35.6365 15.9493 35.4435 16.3576L38.2901 10.2945L35.5111 4.37602Z" fill="#FF6FBC"/>
<path d="M41.1366 13.7457L43.9156 7.82722L46.689 13.7457C46.8815 14.1541 46.9814 14.6001 46.9814 15.0516C46.9814 15.5032 46.8815 15.9491 46.689 16.3576C46.3429 17.0946 45.7182 17.664 44.9523 17.9404C44.1864 18.2168 43.342 18.1777 42.605 17.8316C41.868 17.4855 41.2986 16.8607 41.0222 16.0949C40.7457 15.329 40.7849 14.4846 41.131 13.7476L41.1366 13.7457Z" fill="#6B66C4"/>
<path d="M46.6891 13.7457L43.9102 7.82722L46.7624 1.76602C47.1085 1.02874 47.7333 0.459144 48.4994 0.182541C49.2654 -0.0940613 50.11 -0.0550143 50.8473 0.291092C51.5846 0.637199 52.1542 1.26201 52.4308 2.02809C52.7074 2.79416 52.6683 3.63873 52.3222 4.37602L46.6891 16.3557C46.8814 15.9475 46.9811 15.5019 46.9811 15.0507C46.9811 14.5995 46.8814 14.1539 46.6891 13.7457Z" fill="#FF6FBC"/>
<path d="M41.0695 4.37602C41.2616 3.96744 41.3611 3.52154 41.3611 3.07008C41.3611 2.61862 41.2616 2.17272 41.0695 1.76414L43.9161 7.82534L41.1371 13.7457C40.9451 14.1543 40.8455 14.6002 40.8455 15.0516C40.8455 15.5031 40.9451 15.949 41.1371 16.3576L38.2905 10.2945L41.0695 4.37602Z" fill="#4CC8E9"/>
</g>
</g>
<path d="M23.2724 22.2215H20.343L16.7252 30.4788L13.1118 22.2215H10.1606L6.54713 30.4788L2.93371 22.2215H0L4.99915 33.6406H8.09511L11.634 25.5499L15.1772 33.6406H18.282L23.2724 22.2215ZM27.89 30.9525V24.9096H33.9328V30.9525H27.89ZM27.2147 33.6406H34.6038C35.1621 33.6406 35.6387 33.4433 36.0333 33.0486C36.4251 32.6568 36.621 32.1832 36.621 31.6278V24.2343C36.621 23.6788 36.4251 23.2023 36.0333 22.8047C35.6387 22.4159 35.1621 22.2215 34.6038 22.2215H27.2147C26.6563 22.2215 26.1827 22.4159 25.7939 22.8047C25.3963 23.2023 25.1975 23.6788 25.1975 24.2343V31.6278C25.1975 32.1832 25.3963 32.6568 25.7939 33.0486C26.1827 33.4433 26.6563 33.6406 27.2147 33.6406ZM46.9481 24.9096V26.5848H41.2342V24.9096H46.9481ZM49.4433 33.6406L47.1499 29.2729H47.6147C48.1731 29.2729 48.6496 29.0756 49.0443 28.6809C49.4389 28.2862 49.6363 27.8126 49.6363 27.2601V24.2343C49.6363 23.6788 49.4389 23.2023 49.0443 22.8047C48.6496 22.4159 48.1731 22.2215 47.6147 22.2215H38.5461V33.6406H41.2342V29.2729H44.1504L46.5096 33.6406H49.4433ZM62.9849 22.2215H51.5658V24.9096H55.9291V33.6406H58.6172V24.9096H62.9849V22.2215ZM77.0044 22.2215H74.3163V26.5848H67.5981V22.2215H64.91V33.6406H67.5981V29.2729H74.3163V33.6406H77.0044V22.2215Z" fill="#333334"/>
<defs>
<clipPath id="clip0_109_37638">
<rect width="29.9195" height="18.2215" fill="white" transform="translate(24 2.28882e-05)"/>
</clipPath>
<clipPath id="clip1_109_37638">
<rect width="28.6134" height="18.1244" fill="white" transform="translate(24 2.28882e-05)"/>
</clipPath>
</defs>
</svg>
