<svg width="48" height="48" viewBox="0 0 48 48" fill="none" xmlns="http://www.w3.org/2000/svg">
<rect width="48" height="48" fill="white"/>
<g clip-path="url(#clip0_1575_12220)">
<g clip-path="url(#clip1_1575_12220)">
<path d="M19.6669 29.8193L16.3256 22.7033L12.9843 29.8193C12.7528 30.3104 12.6328 30.8466 12.6328 31.3895C12.6328 31.9324 12.7528 32.4686 12.9843 32.9597C13.2825 33.5945 13.7553 34.1313 14.3474 34.5071C14.9396 34.8829 15.6265 35.0823 16.3279 35.0818C16.9495 35.0817 17.561 34.9245 18.1057 34.6249C18.6504 34.3254 19.1106 33.8931 19.4436 33.3682C19.7767 32.8433 19.9717 32.2428 20.0108 31.6224C20.0498 31.002 19.9315 30.3818 19.6669 29.8193Z" fill="#BC42B9"/>
<path d="M12.9843 29.8193L16.3256 22.7033L12.9053 15.4156C12.4745 14.5533 11.7237 13.8935 10.8131 13.5772C9.90245 13.2609 8.90426 13.3132 8.03165 13.7228C7.15904 14.1324 6.48115 14.867 6.14275 15.7696C5.80435 16.6722 5.83225 17.6714 6.22049 18.5537L12.9934 32.9574C12.7608 32.4673 12.6394 31.9319 12.6378 31.3894C12.6363 30.8469 12.7546 30.3107 12.9843 29.8193Z" fill="#CC99FF"/>
<path d="M12.9843 29.8193L16.3256 22.7033L12.9053 15.4156C12.4745 14.5533 11.7237 13.8935 10.8131 13.5772C9.90245 13.2609 8.90426 13.3132 8.03165 13.7228C7.15904 14.1324 6.48115 14.867 6.14275 15.7696C5.80435 16.6722 5.83225 17.6714 6.22049 18.5537L12.9934 32.9574C12.7608 32.4673 12.6394 31.9319 12.6378 31.3894C12.6363 30.8469 12.7546 30.3107 12.9843 29.8193Z" fill="#33CCFF"/>
<path d="M12.9843 29.8193L16.3256 22.7033L12.9053 15.4156C12.4745 14.5533 11.7237 13.8935 10.8131 13.5772C9.90245 13.2609 8.90426 13.3132 8.03165 13.7228C7.15904 14.1324 6.48115 14.867 6.14275 15.7696C5.80435 16.6722 5.83225 17.6714 6.22049 18.5537L12.9934 32.9574C12.7608 32.4673 12.6394 31.9319 12.6378 31.3894C12.6363 30.8469 12.7546 30.3107 12.9843 29.8193Z" fill="#6666CC"/>
<path d="M12.9843 29.8193L16.3256 22.7033L12.9053 15.4156C12.4745 14.5533 11.7237 13.8935 10.8131 13.5772C9.90245 13.2609 8.90426 13.3132 8.03165 13.7228C7.15904 14.1324 6.48115 14.867 6.14275 15.7696C5.80435 16.6722 5.83225 17.6714 6.22049 18.5537L12.9934 32.9574C12.7608 32.4673 12.6394 31.9319 12.6378 31.3894C12.6363 30.8469 12.7546 30.3107 12.9843 29.8193Z" fill="#333333"/>
<path d="M12.9843 29.8193L16.3256 22.7033L12.9053 15.4156C12.4745 14.5533 11.7237 13.8935 10.8131 13.5772C9.90245 13.2609 8.90426 13.3132 8.03165 13.7228C7.15904 14.1324 6.48115 14.867 6.14275 15.7696C5.80435 16.6722 5.83225 17.6714 6.22049 18.5537L12.9934 32.9574C12.7608 32.4673 12.6394 31.9319 12.6378 31.3894C12.6363 30.8469 12.7546 30.3107 12.9843 29.8193Z" fill="#FF66CC"/>
<path d="M12.9843 29.8193L16.3256 22.7033L12.9053 15.4156C12.4745 14.5533 11.7237 13.8935 10.8131 13.5772C9.90245 13.2609 8.90426 13.3132 8.03165 13.7228C7.15904 14.1324 6.48115 14.867 6.14275 15.7696C5.80435 16.6722 5.83225 17.6714 6.22049 18.5537L12.9934 32.9574C12.7608 32.4673 12.6394 31.9319 12.6378 31.3894C12.6363 30.8469 12.7546 30.3107 12.9843 29.8193Z" fill="#CC99FF"/>
<path d="M26.4308 18.5537C26.6949 17.9912 26.8127 17.371 26.7733 16.7508C26.7338 16.1306 26.5385 15.5304 26.2052 15.0058C25.872 14.4812 25.4117 14.0493 24.867 13.75C24.3224 13.4507 23.711 13.2938 23.0895 13.2938C22.468 13.2938 21.8566 13.4507 21.3119 13.75C20.7673 14.0493 20.307 14.4812 19.9737 15.0058C19.6405 15.5304 19.4451 16.1306 19.4057 16.7508C19.3663 17.371 19.4841 17.9912 19.7482 18.5537L23.0895 25.6698L26.4308 18.5537Z" fill="#6B66C4"/>
<path d="M19.7482 18.5537C19.5167 18.0627 19.3966 17.5265 19.3966 16.9836C19.3966 16.4407 19.5167 15.9045 19.7482 15.4134L16.3256 22.7033L19.6669 29.8193C19.8989 30.3102 20.0192 30.8465 20.0192 31.3895C20.0192 31.9325 19.8989 32.4687 19.6669 32.9597L23.0895 25.6698L19.7482 18.5537Z" fill="#FF6FBC"/>
<path d="M26.512 29.8193L29.8533 22.7033L33.1878 29.8193C33.4194 30.3104 33.5394 30.8466 33.5394 31.3895C33.5394 31.9324 33.4194 32.4686 33.1878 32.9597C32.7717 33.8458 32.0206 34.5304 31.0997 34.8628C30.1789 35.1951 29.1637 35.148 28.2775 34.7319C27.3913 34.3158 26.7068 33.5646 26.3744 32.6438C26.0421 31.7229 26.0891 30.7077 26.5053 29.8216L26.512 29.8193Z" fill="#6B66C4"/>
<path d="M33.1878 29.8193L29.8466 22.7033L33.2759 15.4156C33.692 14.5292 34.4433 13.8443 35.3644 13.5118C36.2854 13.1792 37.3009 13.2261 38.1874 13.6423C39.0738 14.0584 39.7587 14.8097 40.0912 15.7307C40.4238 16.6518 40.3769 17.6673 39.9607 18.5537L33.1878 32.9574C33.419 32.4666 33.5389 31.9308 33.5389 31.3884C33.5389 30.8459 33.419 30.3101 33.1878 29.8193Z" fill="#FF6FBC"/>
<path d="M26.4308 18.5537C26.6617 18.0625 26.7814 17.5264 26.7814 16.9836C26.7814 16.4408 26.6617 15.9046 26.4308 15.4134L29.8533 22.701L26.512 29.8193C26.2811 30.3106 26.1614 30.8467 26.1614 31.3895C26.1614 31.9323 26.2811 32.4684 26.512 32.9597L23.0895 25.6698L26.4308 18.5537Z" fill="#4CC8E9"/>
</g>
</g>
<defs>
<clipPath id="clip0_1575_12220">
<rect width="35.9734" height="21.9084" fill="white" transform="translate(5.90769 13.2923)"/>
</clipPath>
<clipPath id="clip1_1575_12220">
<rect width="34.403" height="21.7917" fill="white" transform="translate(5.90769 13.2923)"/>
</clipPath>
</defs>
</svg>
