<svg width="153" height="24" viewBox="0 0 153 24" fill="none" xmlns="http://www.w3.org/2000/svg">
<g clip-path="url(#clip0_315_26918)">
<path d="M15.0729 18.105L11.4126 10.3096L7.75232 18.105C7.4987 18.6429 7.36719 19.2303 7.36719 19.8251C7.36719 20.4198 7.4987 21.0072 7.75232 21.5452C8.07891 22.2406 8.59686 22.8286 9.24554 23.2403C9.89422 23.652 10.6468 23.8704 11.4151 23.8699C12.096 23.8697 12.7659 23.6976 13.3626 23.3694C13.9593 23.0412 14.4634 22.5677 14.8283 21.9927C15.1931 21.4177 15.4068 20.7599 15.4496 20.0802C15.4923 19.4006 15.3628 18.7212 15.0729 18.105Z" fill="#BC42B9"/>
<path d="M7.75226 18.1046L11.4125 10.3092L7.6657 2.32585C7.19379 1.38115 6.37123 0.658389 5.37369 0.311895C4.37614 -0.0345989 3.28266 0.0226371 2.32674 0.471381C1.37082 0.920125 0.628215 1.72481 0.257504 2.71362C-0.113206 3.70242 -0.0826449 4.79697 0.342661 5.76355L7.76216 21.5423C7.50737 21.0054 7.37437 20.4189 7.37266 19.8246C7.37095 19.2303 7.50058 18.643 7.75226 18.1046Z" fill="#CC99FF"/>
<path d="M7.75226 18.1046L11.4125 10.3092L7.6657 2.32585C7.19379 1.38115 6.37123 0.658389 5.37369 0.311895C4.37614 -0.0345989 3.28266 0.0226371 2.32674 0.471381C1.37082 0.920125 0.628215 1.72481 0.257504 2.71362C-0.113206 3.70242 -0.0826449 4.79697 0.342661 5.76355L7.76216 21.5423C7.50737 21.0054 7.37437 20.4189 7.37266 19.8246C7.37095 19.2303 7.50058 18.643 7.75226 18.1046Z" fill="#33CCFF"/>
<path d="M7.75226 18.1046L11.4125 10.3092L7.6657 2.32585C7.19379 1.38115 6.37123 0.658389 5.37369 0.311895C4.37614 -0.0345989 3.28266 0.0226371 2.32674 0.471381C1.37082 0.920125 0.628215 1.72481 0.257504 2.71362C-0.113206 3.70242 -0.0826449 4.79697 0.342661 5.76355L7.76216 21.5423C7.50737 21.0054 7.37437 20.4189 7.37266 19.8246C7.37095 19.2303 7.50058 18.643 7.75226 18.1046Z" fill="#6666CC"/>
<path d="M7.75226 18.1046L11.4125 10.3092L7.6657 2.32585C7.19379 1.38115 6.37123 0.658389 5.37369 0.311895C4.37614 -0.0345989 3.28266 0.0226371 2.32674 0.471381C1.37082 0.920125 0.628215 1.72481 0.257504 2.71362C-0.113206 3.70242 -0.0826449 4.79697 0.342661 5.76355L7.76216 21.5423C7.50737 21.0054 7.37437 20.4189 7.37266 19.8246C7.37095 19.2303 7.50058 18.643 7.75226 18.1046Z" fill="#333333"/>
<path d="M7.75226 18.1046L11.4125 10.3092L7.6657 2.32585C7.19379 1.38115 6.37123 0.658389 5.37369 0.311895C4.37614 -0.0345989 3.28266 0.0226371 2.32674 0.471381C1.37082 0.920125 0.628215 1.72481 0.257504 2.71362C-0.113206 3.70242 -0.0826449 4.79697 0.342661 5.76355L7.76216 21.5423C7.50737 21.0054 7.37437 20.4189 7.37266 19.8246C7.37095 19.2303 7.50058 18.643 7.75226 18.1046Z" fill="#FF66CC"/>
<path d="M7.75226 18.1046L11.4125 10.3092L7.6657 2.32585C7.19379 1.38115 6.37123 0.658389 5.37369 0.311895C4.37614 -0.0345989 3.28266 0.0226371 2.32674 0.471381C1.37082 0.920125 0.628215 1.72481 0.257504 2.71362C-0.113206 3.70242 -0.0826449 4.79697 0.342661 5.76355L7.76216 21.5423C7.50737 21.0054 7.37437 20.4189 7.37266 19.8246C7.37095 19.2303 7.50058 18.643 7.75226 18.1046Z" fill="#CC99FF"/>
<path d="M22.4822 5.76407C22.7716 5.14781 22.9006 4.46846 22.8574 3.78903C22.8142 3.1096 22.6002 2.45207 22.2351 1.8774C21.8701 1.30274 21.3659 0.829547 20.7692 0.501697C20.1725 0.173847 19.5027 0.00195312 18.8219 0.00195312C18.1411 0.00195313 17.4714 0.173847 16.8747 0.501697C16.278 0.829547 15.7738 1.30274 15.4087 1.8774C15.0437 2.45207 14.8297 3.1096 14.7865 3.78903C14.7433 4.46846 14.8723 5.14781 15.1617 5.76407L18.8219 13.5595L22.4822 5.76407Z" fill="#6B66C4"/>
<path d="M15.1614 5.76341C14.9078 5.22545 14.7763 4.63807 14.7763 4.04333C14.7763 3.44858 14.9078 2.8612 15.1614 2.32324L11.4121 10.3091L15.0724 18.1045C15.3265 18.6423 15.4583 19.2298 15.4583 19.8246C15.4583 20.4194 15.3265 21.0069 15.0724 21.5447L18.8217 13.5588L15.1614 5.76341Z" fill="#FF6FBC"/>
<path d="M22.5711 18.105L26.2314 10.3096L29.8842 18.105C30.1378 18.6429 30.2694 19.2303 30.2694 19.8251C30.2694 20.4198 30.1378 21.0072 29.8842 21.5452C29.4284 22.5159 28.6055 23.2658 27.5968 23.6299C26.588 23.994 25.4759 23.9425 24.5051 23.4866C23.5343 23.0307 22.7844 22.2079 22.4203 21.1991C22.0562 20.1903 22.1078 19.0782 22.5637 18.1075L22.5711 18.105Z" fill="#6B66C4"/>
<path d="M29.8844 18.1048L26.2241 10.3094L29.9809 2.32605C30.4367 1.35495 31.2597 0.604722 32.2687 0.2404C33.2777 -0.123921 34.3901 -0.072491 35.3612 0.383376C36.3323 0.839243 37.0826 1.6622 37.4469 2.67122C37.8112 3.68023 37.7598 4.79265 37.3039 5.76374L29.8844 21.5425C30.1376 21.0049 30.269 20.418 30.269 19.8237C30.269 19.2294 30.1376 18.6425 29.8844 18.1048Z" fill="#FF6FBC"/>
<path d="M22.4825 5.76341C22.7355 5.22527 22.8666 4.63796 22.8666 4.04333C22.8666 3.4487 22.7355 2.86139 22.4825 2.32324L26.2319 10.3066L22.5716 18.1045C22.3186 18.6426 22.1875 19.23 22.1875 19.8246C22.1875 20.4192 22.3186 21.0065 22.5716 21.5447L18.8223 13.5588L22.4825 5.76341Z" fill="#4CC8E9"/>
</g>
<path d="M82.0208 3.95117H78.1625L73.3974 14.8272L68.6381 3.95117H64.7509L59.9916 14.8272L55.2322 3.95117H51.3682L57.9527 18.9916H62.0305L66.6916 8.33508L71.3585 18.9916H75.4479L82.0208 3.95117ZM88.1029 15.451V7.4918H96.062V15.451H88.1029ZM87.2134 18.9916H96.9458C97.6812 18.9916 98.3089 18.7317 98.8287 18.2119C99.3447 17.6959 99.6027 17.0721 99.6027 16.3405V6.60231C99.6027 5.87069 99.3447 5.24305 98.8287 4.71937C98.3089 4.20724 97.6812 3.95117 96.9458 3.95117H87.2134C86.4779 3.95117 85.8541 4.20724 85.342 4.71937C84.8183 5.24305 84.5565 5.87069 84.5565 6.60231V16.3405C84.5565 17.0721 84.8183 17.6959 85.342 18.2119C85.8541 18.7317 86.4779 18.9916 87.2134 18.9916ZM113.205 7.4918V9.69819H105.679V7.4918H113.205ZM116.491 18.9916L113.471 13.2388H114.083C114.818 13.2388 115.446 12.9789 115.966 12.4591C116.486 11.9392 116.746 11.3154 116.746 10.5877V6.60231C116.746 5.87069 116.486 5.24305 115.966 4.71937C115.446 4.20724 114.818 3.95117 114.083 3.95117H102.138V18.9916H105.679V13.2388H109.52L112.627 18.9916H116.491ZM134.327 3.95117H119.287V7.4918H125.034V18.9916H128.575V7.4918H134.327V3.95117ZM152.793 3.95117H149.252V9.69819H140.404V3.95117H136.863V18.9916H140.404V13.2388H149.252V18.9916H152.793V3.95117Z" fill="white"/>
<defs>
<clipPath id="clip0_315_26918">
<rect width="37.6875" height="23.8721" fill="white"/>
</clipPath>
</defs>
</svg>
