<svg width="655" height="896" viewBox="0 0 655 896" fill="none" xmlns="http://www.w3.org/2000/svg">
<path opacity="0.1" fill-rule="evenodd" clip-rule="evenodd" d="M293.738 882.507V896L292.906 896V882.507L271.227 882.507V896H270.395V882.507L248.715 882.507V896H247.883V882.507L226.204 882.507V896H225.373V882.507L203.693 882.507V896H202.862V882.507L181.182 882.507V896H180.351V882.507L158.67 882.507V896H157.839V882.507L136.16 882.507V896H135.329V882.507L113.649 882.507V896H112.818V882.507L91.1376 882.507V896H90.3062V882.507L68.6273 882.507V896H67.7959V882.507L46.1166 882.507V896H45.2852V882.507L23.6047 882.507V896H22.7733V882.507L6.09756e-05 882.507V881.676L22.7733 881.676V861.461L6.09756e-05 861.461V860.629L22.7733 860.629V840.413L6.09756e-05 840.413V839.582L22.7733 839.582V819.366H6.09756e-05V818.535H22.7733V798.32H6.09756e-05V797.488H22.7733V777.273H6.09756e-05V776.441H22.7733V756.225H6.09756e-05V755.394H22.7733V735.179H6.09756e-05V734.347H22.7733V714.132H6.09756e-05V713.301H22.7733V693.085H6.09756e-05V692.254H22.7733V672.038H6.09756e-05V671.207H22.7733V650.991H6.09756e-05V650.16H22.7733V629.945H6.09756e-05V629.113H22.7733V608.897H6.09756e-05V608.066H22.7733V587.851H6.09756e-05V587.019H22.7733V566.804H6.09756e-05V565.972H22.7733V545.757H6.09756e-05V544.925H22.7733V524.71H6.09756e-05V523.878H22.7733V503.663H6.09756e-05V502.832H22.7733V482.616H6.09756e-05V481.785H22.7733V461.569H6.09756e-05V460.738H22.7733L22.7733 440.522H6.09756e-05V439.69H22.7733V419.475H6.09756e-05V418.644H22.7733V398.428H6.09756e-05V397.597H22.7733V377.381H6.09756e-05V376.55H22.7733V356.334H6.09756e-05V355.503H22.7733V335.287H6.09756e-05V334.456H22.7733V314.24H6.09756e-05V313.409H22.7733V293.193H6.09756e-05V292.362H22.7733V272.146H6.09756e-05V271.315H22.7733V251.1H6.09756e-05V250.268H22.7733V230.052H6.09756e-05V229.221H22.7733V209.005H6.09756e-05V208.174H22.7733V187.958H6.09756e-05V187.127H22.7733V166.912H6.09756e-05V166.08H22.7733V145.864H6.09756e-05V145.033H22.7733V124.818H6.09756e-05V123.986H22.7733V103.771H6.09756e-05V102.939H22.7733V82.7236H6.09756e-05V81.8921H22.7733V61.6767H6.09756e-05V60.8453H22.7733V40.6295H6.09756e-05V39.798H22.7733V19.5827H6.09756e-05V18.7513H22.7733V-3.8147e-06H23.6047V18.7513H45.2852V-3.8147e-06H46.1166V18.7513H67.796V-3.8147e-06H68.6274V18.7513H90.3062V-3.8147e-06H91.1376V18.7513H112.818V-3.8147e-06H113.649V18.7513H135.329V-3.8147e-06H136.16V18.7513H157.839V-3.8147e-06H158.671V18.7513H180.351V-3.8147e-06H181.182V18.7513H202.862V-3.8147e-06H203.693V18.7513H225.373V-3.8147e-06H226.204V18.7513H247.883V-3.8147e-06H248.715V18.7513H270.395V-3.8147e-06H271.227V18.7513H292.906V0.000179291H293.738V18.7513H315.417V-3.8147e-06H316.248V18.7513L337.928 18.7513V-3.8147e-06H338.759V18.7513H360.438V-3.8147e-06H361.27V18.7513H382.951V-3.8147e-06H383.782V18.7513H405.462V-3.8147e-06H406.293V18.7513H427.972V-3.8147e-06H428.803V18.7513H450.483V-3.8147e-06H451.314V18.7513H472.994V-3.8147e-06H473.825V18.7513H495.505V-3.8147e-06H496.337V18.7513H518.015V-3.8147e-06H518.847V18.7513H540.527V-3.8147e-06H541.358V18.7513H563.038V-3.8147e-06H563.87V18.7513H585.548V-3.8147e-06H586.38V18.7513H608.06V-3.8147e-06H608.891V18.7513H630.572V-3.8147e-06H631.403L631.403 18.7513H654.318L654.318 19.5828H631.403V39.7981H654.318L654.318 40.6295H631.403L631.403 60.8453H654.318L654.318 61.6768H631.403V81.8922H654.318L654.318 82.7236H631.403L631.403 102.939H654.318L654.318 103.771H631.403V123.986H654.318L654.318 124.818H631.403L631.403 145.033H654.318L654.318 145.864H631.403V166.08H654.318L654.318 166.912H631.403L631.403 187.127H654.318L654.318 187.959H631.403L631.403 208.174H654.318L654.318 209.005H631.403V229.221H654.318L654.318 230.052H631.403L631.403 250.268H654.318L654.318 251.1H631.403V271.315H654.318L654.318 272.146H631.403L631.403 292.362H654.318L654.318 293.193H631.403V313.409H654.318L654.318 314.24H631.403L631.403 334.456H654.318L654.318 335.287H631.403L631.403 355.503H654.318L654.318 356.334H631.403V376.55H654.318L654.318 377.381H631.403L631.403 397.597H654.318L654.318 398.428H631.403V418.644H654.318L654.318 419.475H631.403L631.403 439.69H654.318L654.318 440.522H631.403V460.738H654.318L654.318 461.569H631.403L631.403 481.785H654.318L654.318 482.616H631.403V502.832H654.318L654.318 503.663H631.403L631.403 523.878H654.318L654.318 524.71H631.403L631.403 544.926H654.318L654.318 545.757H631.403V565.972H654.318L654.318 566.804H631.403L631.403 587.019H654.318L654.318 587.851H631.403V608.066H654.318L654.318 608.897H631.403L631.403 629.113H654.318L654.318 629.945H631.403V650.16H654.318L654.318 650.992H631.403L631.403 671.207H654.318L654.318 672.039H631.403L631.403 692.254H654.318L654.318 693.085H631.403V713.301H654.318L654.318 714.132H631.403L631.403 734.348H654.318L654.318 735.179H631.403V755.394H654.318L654.318 756.225H631.403L631.403 776.441H654.318L654.318 777.273H631.403V797.488H654.318L654.318 798.32H631.403L631.403 818.535H654.318L654.318 819.366H631.403V839.582L654.318 839.582L654.318 840.413L631.403 840.413V860.629L654.318 860.629L654.318 861.461L631.403 861.461L631.403 881.676L654.318 881.676L654.318 882.507L631.403 882.507V896H630.572V882.507L608.891 882.507V896H608.06V882.507L586.38 882.507V896H585.548V882.507L563.87 882.507V896H563.038V882.507L541.358 882.507V896H540.527V882.507L518.847 882.507V896H518.015V882.507L496.337 882.507V896H495.505V882.507L473.825 882.507V896H472.994V882.507L451.314 882.507V896H450.483V882.507L428.803 882.507V896H427.972V882.507L406.293 882.507V896H405.462V882.507L383.782 882.507V896H382.951V882.507L361.27 882.507V896H360.438V882.507L338.759 882.507V896H337.928V882.507L316.248 882.507V896H315.417V882.507L293.738 882.507ZM293.738 881.676L315.417 881.676V861.461L293.738 861.461V881.676ZM293.738 860.629L315.417 860.629V840.413L293.738 840.413V860.629ZM292.906 840.413V860.629H271.227V840.413H292.906ZM293.738 839.582L315.417 839.582V819.366L293.738 819.366V839.582ZM292.906 819.366V839.582L271.227 839.582V819.366H292.906ZM293.738 818.535H315.417V798.32L293.738 798.32V818.535ZM292.906 798.32V818.535H271.227V798.32H292.906ZM293.738 797.488H315.417V777.273L293.738 777.273V797.488ZM292.906 777.273V797.488H271.227V777.273H292.906ZM293.738 776.441H315.417V756.225H293.738V776.441ZM292.906 756.225V776.441H271.227V756.225H292.906ZM293.738 755.394H315.417V735.179H293.738V755.394ZM292.906 735.179V755.394L271.227 755.394V735.179H292.906ZM293.738 734.347H315.417V714.132H293.738V734.347ZM292.906 714.132V734.347H271.227V714.132H292.906ZM293.738 713.301H315.417V693.085H293.738V713.301ZM292.906 693.085V713.301H271.227V693.085H292.906ZM293.738 692.254H315.417V672.038H293.738V692.254ZM292.906 672.038V692.254H271.227V672.038H292.906ZM293.738 671.207H315.417V650.991H293.738V671.207ZM292.906 650.991V671.207H271.227V650.991H292.906ZM293.738 650.16H315.417V629.945H293.738V650.16ZM292.906 629.945V650.16H271.227V629.945H292.906ZM293.738 629.113H315.417V608.897H293.738V629.113ZM292.906 608.897V629.113H271.227V608.897H292.906ZM293.738 608.066H315.417V587.851H293.738V608.066ZM292.906 587.851V608.066H271.227V587.851H292.906ZM293.738 587.019H315.417V566.804H293.738V587.019ZM292.906 566.804V587.019H271.227V566.804H292.906ZM293.738 565.972H315.417V545.757H293.738V565.972ZM292.906 545.757V565.972H271.227V545.757H292.906ZM293.738 544.926H315.417V524.71H293.738V544.926ZM292.906 524.71V544.926H271.227V524.71H292.906ZM293.738 523.878H315.417V503.663H293.738V523.878ZM292.906 503.663V523.878H271.227V503.663H292.906ZM293.738 502.832H315.417V482.616H293.738V502.832ZM292.906 482.616V502.832H271.227V482.616H292.906ZM293.738 481.785H315.417V461.569H293.738V481.785ZM292.906 461.569V481.785H271.227V461.569H292.906ZM293.738 460.738H315.417L315.417 440.522H293.738L293.738 460.738ZM292.906 440.522L292.906 460.738H271.227L271.227 440.522H292.906ZM293.738 439.69H315.417V419.475H293.738V439.69ZM292.906 419.475V439.69H271.227V419.475H292.906ZM293.738 418.644H315.417V398.428H293.738V418.644ZM292.906 398.428V418.644H271.227V398.428H292.906ZM293.738 397.597H315.417V377.381H293.738V397.597ZM292.906 377.381V397.597H271.227V377.381H292.906ZM293.738 376.55H315.417V356.334H293.738V376.55ZM292.906 356.334V376.55H271.227V356.334H292.906ZM293.738 355.503H315.417V335.287H293.738V355.503ZM292.906 335.287V355.503H271.227V335.287H292.906ZM293.738 334.456H315.417V314.24H293.738V334.456ZM292.906 314.24V334.456H271.227V314.24H292.906ZM293.738 313.409H315.417V293.193H293.738V313.409ZM292.906 293.193V313.409H271.227V293.193H292.906ZM293.738 292.362H315.417V272.146H293.738V292.362ZM292.906 272.146V292.362H271.227V272.146H292.906ZM293.738 271.315H315.417V251.1H293.738V271.315ZM292.906 251.1V271.315H271.227V251.1H292.906ZM293.738 250.268H315.417V230.052H293.738V250.268ZM292.906 230.052V250.268H271.227V230.052H292.906ZM293.738 229.221H315.417V209.005H293.738V229.221ZM292.906 209.005V229.221H271.227V209.005H292.906ZM293.738 208.174H315.417V187.958H293.738V208.174ZM292.906 187.958V208.174H271.227V187.958H292.906ZM293.738 187.127H315.417V166.912H293.738V187.127ZM292.906 166.912V187.127H271.227V166.912H292.906ZM293.738 166.08H315.417V145.864H293.738V166.08ZM292.906 145.864V166.08H271.227V145.864H292.906ZM293.738 145.033H315.417V124.818H293.738V145.033ZM292.906 124.818V145.033H271.227V124.818H292.906ZM293.738 123.986H315.417V103.771H293.738V123.986ZM292.906 103.771V123.986H271.227V103.771H292.906ZM293.738 102.939H315.417V82.7236H293.738V102.939ZM292.906 82.7236V102.939H271.227V82.7236H292.906ZM293.738 81.8921H315.417V61.6767H293.738V81.8921ZM292.906 61.6767V81.8921H271.227V61.6767H292.906ZM293.738 60.8453H315.417V40.6295H293.738V60.8453ZM292.906 40.6295V60.8453H271.227V40.6295H292.906ZM293.738 39.798H315.417V19.5827H293.738V39.798ZM292.906 19.5827V39.798H271.227V19.5827H292.906ZM270.395 19.5827H248.715V39.798H270.395V19.5827ZM270.395 40.6295H248.715V60.8453H270.395V40.6295ZM270.395 61.6767H248.715V81.8921H270.395V61.6767ZM270.395 82.7236H248.715V102.939H270.395V82.7236ZM270.395 103.771H248.715V123.986H270.395V103.771ZM270.395 124.818H248.715V145.033H270.395V124.818ZM270.395 145.864H248.715V166.08H270.395V145.864ZM270.395 166.912H248.715V187.127H270.395V166.912ZM270.395 187.958H248.715V208.174H270.395V187.958ZM270.395 209.005H248.715V229.221H270.395V209.005ZM270.395 230.052H248.715V250.268H270.395V230.052ZM270.395 251.1H248.715V271.315H270.395V251.1ZM270.395 272.146H248.715V292.362H270.395V272.146ZM270.395 293.193H248.715V313.409H270.395V293.193ZM270.395 314.24H248.715V334.456H270.395V314.24ZM270.395 335.287H248.715V355.503H270.395V335.287ZM270.395 356.334H248.715V376.55H270.395V356.334ZM270.395 377.381H248.715V397.597H270.395V377.381ZM270.395 398.428H248.715V418.644H270.395V398.428ZM270.395 419.475H248.715V439.69H270.395V419.475ZM270.395 440.522H248.715L248.715 460.738H270.395L270.395 440.522ZM270.395 461.569H248.715V481.785H270.395V461.569ZM270.395 482.616H248.715V502.832H270.395V482.616ZM270.395 503.663H248.715V523.878H270.395V503.663ZM270.395 524.71H248.715V544.926H270.395V524.71ZM270.395 545.757H248.715V565.972H270.395V545.757ZM270.395 566.804H248.715V587.019H270.395V566.804ZM270.395 587.851H248.715V608.066H270.395V587.851ZM270.395 608.897H248.715V629.113H270.395V608.897ZM270.395 629.945H248.715V650.16H270.395V629.945ZM270.395 650.991H248.715V671.207H270.395V650.991ZM270.395 672.038H248.715V692.254H270.395V672.038ZM270.395 693.085H248.715V713.301H270.395V693.085ZM270.395 714.132H248.715V734.347H270.395V714.132ZM270.395 735.179H248.715V755.394H270.395V735.179ZM270.395 756.225H248.715V776.441L270.395 776.441V756.225ZM270.395 777.273H248.715V797.488L270.395 797.488V777.273ZM270.395 798.32H248.715V818.535L270.395 818.535V798.32ZM270.395 819.366H248.715V839.582H270.395V819.366ZM270.395 840.413L248.715 840.413V860.629L270.395 860.629V840.413ZM270.395 861.461H248.715V881.676L270.395 881.676V861.461ZM271.227 881.676L292.906 881.676V861.461L271.227 861.461V881.676ZM247.883 881.676V861.461L226.204 861.461V881.676L247.883 881.676ZM225.373 881.676V861.461L203.693 861.461V881.676L225.373 881.676ZM202.862 881.676V861.461H181.182V881.676L202.862 881.676ZM180.351 881.676V861.461L158.67 861.461V881.676L180.351 881.676ZM157.839 881.676V861.461L136.16 861.461V881.676L157.839 881.676ZM135.329 881.676V861.461L113.649 861.461V881.676L135.329 881.676ZM112.818 881.676V861.461H91.1376V881.676L112.818 881.676ZM90.3062 881.676V861.461L68.6273 861.461V881.676L90.3062 881.676ZM67.7959 881.676V861.461L46.1166 861.461V881.676L67.7959 881.676ZM45.2852 881.676V861.461H23.6047V881.676L45.2852 881.676ZM23.6047 860.629H45.2852V840.413H23.6047V860.629ZM23.6047 839.582H45.2852V819.366L23.6047 819.366V839.582ZM23.6047 818.535L45.2852 818.535V798.32L23.6047 798.32V818.535ZM23.6047 797.488L45.2852 797.488V777.273L23.6047 777.273V797.488ZM23.6047 776.441L45.2852 776.441V756.225H23.6047V776.441ZM23.6047 755.394H45.2852V735.179H23.6047V755.394ZM23.6047 734.347H45.2852V714.132H23.6047V734.347ZM23.6047 713.301H45.2852V693.085H23.6047V713.301ZM23.6047 692.254H45.2852V672.038H23.6047V692.254ZM23.6047 671.207H45.2852V650.991H23.6047V671.207ZM23.6047 650.16H45.2852V629.945H23.6047V650.16ZM23.6047 629.113H45.2852V608.897H23.6047V629.113ZM23.6047 608.066H45.2852V587.851H23.6047V608.066ZM23.6047 587.019H45.2852V566.804H23.6047V587.019ZM23.6047 565.972H45.2852V545.757H23.6047V565.972ZM23.6047 544.925H45.2852V524.71H23.6047V544.925ZM23.6047 523.878H45.2852V503.663H23.6047V523.878ZM23.6047 502.832H45.2852V482.616H23.6047V502.832ZM23.6047 481.785H45.2852V461.569H23.6047V481.785ZM23.6047 460.738H45.2852L45.2852 440.522H23.6047L23.6047 460.738ZM23.6047 439.69H45.2852V419.475H23.6047V439.69ZM23.6047 418.644H45.2852V398.428H23.6047V418.644ZM23.6047 397.597H45.2852V377.381H23.6047V397.597ZM23.6047 376.55H45.2852V356.334H23.6047V376.55ZM23.6047 355.503H45.2852V335.287H23.6047V355.503ZM23.6047 334.456H45.2852V314.24H23.6047V334.456ZM23.6047 313.409H45.2852V293.193H23.6047V313.409ZM23.6047 292.362H45.2852V272.146H23.6047V292.362ZM23.6047 271.315H45.2852V251.1H23.6047V271.315ZM23.6047 250.268H45.2852V230.052H23.6047V250.268ZM23.6047 229.221H45.2852V209.005H23.6047V229.221ZM23.6047 208.174H45.2852V187.958H23.6047V208.174ZM23.6047 187.127H45.2852V166.912H23.6047V187.127ZM23.6047 166.08H45.2852V145.864H23.6047V166.08ZM23.6047 145.033H45.2852V124.818H23.6047V145.033ZM23.6047 123.986H45.2852V103.771H23.6047V123.986ZM23.6047 102.939H45.2852V82.7236H23.6047V102.939ZM23.6047 81.8921H45.2852V61.6767H23.6047V81.8921ZM23.6047 60.8453H45.2852V40.6295H23.6047V60.8453ZM23.6047 39.798H45.2852V19.5827H23.6047V39.798ZM46.1166 19.5827V39.798H67.796V19.5827H46.1166ZM68.6274 19.5827V39.798H90.3062V19.5827H68.6274ZM91.1376 19.5827V39.798H112.818V19.5827H91.1376ZM113.649 19.5827V39.798H135.329V19.5827H113.649ZM136.16 19.5827V39.798H157.839V19.5827H136.16ZM158.671 19.5827V39.798H180.351V19.5827H158.671ZM181.182 19.5827V39.798H202.862V19.5827H181.182ZM203.693 19.5827V39.798H225.373V19.5827H203.693ZM226.204 19.5827V39.798H247.883V19.5827H226.204ZM247.883 40.6295H226.204V60.8453H247.883V40.6295ZM247.883 61.6767H226.204V81.8921H247.883V61.6767ZM247.883 82.7236H226.204V102.939H247.883V82.7236ZM247.883 103.771H226.204V123.986H247.883V103.771ZM247.883 124.818H226.204V145.033H247.883V124.818ZM247.883 145.864H226.204V166.08H247.883V145.864ZM247.883 166.912H226.204V187.127H247.883V166.912ZM247.883 187.958H226.204V208.174H247.883V187.958ZM247.883 209.005H226.204V229.221H247.883V209.005ZM247.883 230.052H226.204V250.268H247.883V230.052ZM247.883 251.1H226.204V271.315H247.883V251.1ZM247.883 272.146H226.204V292.362H247.883V272.146ZM247.883 293.193H226.204V313.409H247.883V293.193ZM247.883 314.24H226.204V334.456H247.883V314.24ZM247.883 335.287H226.204V355.503H247.883V335.287ZM247.883 356.334H226.204V376.55H247.883V356.334ZM247.883 377.381H226.204V397.597H247.883V377.381ZM247.883 398.428H226.204V418.644H247.883V398.428ZM247.883 419.475H226.204V439.69H247.883V419.475ZM247.883 440.522H226.204L226.204 460.738H247.883L247.883 440.522ZM247.883 461.569H226.204V481.785H247.883V461.569ZM247.883 482.616H226.204V502.832H247.883V482.616ZM247.883 503.663H226.204V523.878H247.883V503.663ZM247.883 524.71H226.204V544.926H247.883V524.71ZM247.883 545.757H226.204V565.972H247.883V545.757ZM247.883 566.804H226.204V587.019H247.883V566.804ZM247.883 587.851H226.204V608.066H247.883V587.851ZM247.883 608.897H226.204V629.113H247.883V608.897ZM247.883 629.945H226.204V650.16H247.883V629.945ZM247.883 650.991H226.204V671.207H247.883V650.991ZM247.883 672.038H226.204V692.254H247.883V672.038ZM247.883 693.085H226.204V713.301H247.883V693.085ZM247.883 714.132H226.204V734.347H247.883V714.132ZM247.883 735.179H226.204V755.394H247.883V735.179ZM247.883 756.225H226.204V776.441H247.883V756.225ZM247.883 777.273L226.204 777.273V797.488H247.883V777.273ZM247.883 798.32L226.204 798.32V818.535H247.883V798.32ZM247.883 819.366L226.204 819.366V839.582L247.883 839.582V819.366ZM247.883 840.413L226.204 840.413V860.629L247.883 860.629V840.413ZM225.373 860.629V840.413H203.693V860.629H225.373ZM202.862 860.629V840.413L181.182 840.413V860.629L202.862 860.629ZM180.351 860.629V840.413L158.67 840.413V860.629L180.351 860.629ZM157.839 860.629V840.413L136.16 840.413V860.629L157.839 860.629ZM135.329 860.629V840.413H113.649V860.629H135.329ZM112.818 860.629V840.413L91.1376 840.413V860.629L112.818 860.629ZM90.3062 860.629V840.413L68.6273 840.413V860.629L90.3062 860.629ZM67.7959 860.629V840.413L46.1166 840.413V860.629L67.7959 860.629ZM46.1166 839.582L67.7959 839.582V819.366H46.1166V839.582ZM46.1166 818.535H67.7959V798.32H46.1166V818.535ZM46.1166 797.488H67.7959V777.273H46.1166V797.488ZM46.1166 776.441H67.7959V756.225L46.1166 756.225V776.441ZM46.1166 755.394L67.7959 755.394V735.179L46.1166 735.179V755.394ZM46.1166 734.347L67.7959 734.347V714.132L46.1166 714.132V734.347ZM46.1166 713.301L67.7959 713.301V693.085L46.1166 693.085V713.301ZM46.1166 692.254L67.7959 692.254V672.038L46.1166 672.038V692.254ZM46.1166 671.207L67.7959 671.207V650.991L46.1166 650.991V671.207ZM46.1166 650.16L67.7959 650.16V629.945H46.1166V650.16ZM46.1166 629.113H67.7959V608.897H46.1166V629.113ZM46.1166 608.066H67.7959V587.851H46.1166V608.066ZM46.1166 587.019H67.7959V566.804H46.1166V587.019ZM46.1166 565.972H67.7959V545.757H46.1166V565.972ZM46.1166 544.925H67.7959V524.71H46.1166V544.925ZM46.1166 523.878H67.7959V503.663H46.1166V523.878ZM46.1166 502.832H67.7959V482.616H46.1166V502.832ZM46.1166 481.785H67.7959V461.569H46.1166V481.785ZM46.1166 460.738H67.7959L67.796 440.522H46.1166L46.1166 460.738ZM46.1166 439.69H67.796V419.475H46.1166V439.69ZM46.1166 418.644H67.796V398.428H46.1166V418.644ZM46.1166 397.597H67.796V377.381H46.1166V397.597ZM46.1166 376.55H67.796V356.334H46.1166V376.55ZM46.1166 355.503H67.796V335.287H46.1166V355.503ZM46.1166 334.456H67.796V314.24H46.1166V334.456ZM46.1166 313.409H67.796V293.193H46.1166V313.409ZM46.1166 292.362H67.796V272.146H46.1166V292.362ZM46.1166 271.315H67.796V251.1H46.1166V271.315ZM46.1166 250.268H67.796V230.052H46.1166V250.268ZM46.1166 229.221H67.796V209.005H46.1166V229.221ZM46.1166 208.174H67.796V187.958H46.1166V208.174ZM46.1166 187.127H67.796V166.912H46.1166V187.127ZM46.1166 166.08H67.796V145.864H46.1166V166.08ZM46.1166 145.033H67.796V124.818H46.1166V145.033ZM46.1166 123.986H67.796V103.771H46.1166V123.986ZM46.1166 102.939H67.796V82.7236H46.1166V102.939ZM46.1166 81.8921H67.796V61.6767H46.1166V81.8921ZM46.1166 60.8453H67.796V40.6295H46.1166V60.8453ZM68.6274 40.6295V60.8453H90.3062V40.6295H68.6274ZM91.1376 40.6295V60.8453H112.818V40.6295H91.1376ZM113.649 40.6295V60.8453H135.329V40.6295H113.649ZM136.16 40.6295V60.8453H157.839V40.6295H136.16ZM158.671 40.6295V60.8453H180.351V40.6295H158.671ZM181.182 40.6295V60.8453H202.862V40.6295H181.182ZM203.693 40.6295V60.8453H225.373V40.6295H203.693ZM225.373 61.6767H203.693V81.8921H225.373V61.6767ZM225.373 82.7236H203.693V102.939H225.373V82.7236ZM225.373 103.771H203.693V123.986H225.373V103.771ZM225.373 124.818H203.693V145.033H225.373V124.818ZM225.373 145.864H203.693V166.08H225.373V145.864ZM225.373 166.912H203.693V187.127H225.373V166.912ZM225.373 187.958H203.693V208.174H225.373V187.958ZM225.373 209.005H203.693V229.221H225.373V209.005ZM225.373 230.052H203.693V250.268H225.373V230.052ZM225.373 251.1H203.693V271.315H225.373V251.1ZM225.373 272.146H203.693V292.362H225.373V272.146ZM225.373 293.193H203.693V313.409H225.373V293.193ZM225.373 314.24H203.693V334.456H225.373V314.24ZM225.373 335.287H203.693V355.503H225.373V335.287ZM225.373 356.334H203.693V376.55H225.373V356.334ZM225.373 377.381H203.693V397.597H225.373V377.381ZM225.373 398.428H203.693V418.644H225.373V398.428ZM225.373 419.475H203.693V439.69H225.373V419.475ZM225.373 440.522H203.693L203.693 460.738H225.373L225.373 440.522ZM225.373 461.569H203.693V481.785H225.373V461.569ZM225.373 482.616H203.693V502.832H225.373V482.616ZM225.373 503.663H203.693V523.878H225.373V503.663ZM225.373 524.71H203.693V544.926H225.373V524.71ZM225.373 545.757H203.693V565.972H225.373V545.757ZM225.373 566.804H203.693V587.019H225.373V566.804ZM225.373 587.851H203.693V608.066H225.373V587.851ZM225.373 608.897H203.693V629.113H225.373V608.897ZM225.373 629.945H203.693V650.16H225.373V629.945ZM225.373 650.991H203.693V671.207H225.373V650.991ZM225.373 672.038H203.693V692.254H225.373V672.038ZM225.373 693.085H203.693V713.301H225.373V693.085ZM225.373 714.132H203.693V734.347H225.373V714.132ZM225.373 735.179H203.693V755.394H225.373V735.179ZM225.373 756.225H203.693V776.441L225.373 776.441V756.225ZM225.373 777.273H203.693V797.488L225.373 797.488V777.273ZM225.373 798.32H203.693V818.535L225.373 818.535V798.32ZM225.373 819.366H203.693V839.582L225.373 839.582V819.366ZM202.862 839.582V819.366H181.182V839.582H202.862ZM180.351 839.582V819.366L158.67 819.366V839.582L180.351 839.582ZM157.839 839.582V819.366H136.16V839.582L157.839 839.582ZM135.329 839.582V819.366H113.649V839.582L135.329 839.582ZM112.818 839.582V819.366L91.1376 819.366V839.582H112.818ZM90.3062 839.582V819.366H68.6273V839.582L90.3062 839.582ZM68.6273 818.535L90.3062 818.535V798.32H68.6273V818.535ZM68.6273 797.488L90.3062 797.488V777.273H68.6273V797.488ZM68.6273 776.441L90.3062 776.441V756.225H68.6273V776.441ZM68.6273 755.394H90.3062V735.179H68.6273V755.394ZM68.6273 734.347H90.3062V714.132H68.6273V734.347ZM68.6273 713.301H90.3062V693.085H68.6273V713.301ZM68.6273 692.254H90.3062V672.038H68.6273V692.254ZM68.6273 671.207H90.3062V650.991H68.6273V671.207ZM68.6273 650.16H90.3062V629.945H68.6273V650.16ZM68.6273 629.113H90.3062V608.897H68.6273V629.113ZM68.6273 608.066H90.3062V587.851H68.6273V608.066ZM68.6273 587.019H90.3062V566.804H68.6273V587.019ZM68.6273 565.972H90.3062V545.757H68.6273V565.972ZM68.6273 544.925H90.3062V524.71H68.6273V544.925ZM68.6273 523.878H90.3062V503.663H68.6273V523.878ZM68.6273 502.832H90.3062V482.616H68.6273V502.832ZM68.6273 481.785H90.3062V461.569H68.6273V481.785ZM68.6273 460.738H90.3062L90.3062 440.522H68.6274L68.6273 460.738ZM68.6274 439.69H90.3062V419.475H68.6274V439.69ZM68.6274 418.644H90.3062V398.428H68.6274V418.644ZM68.6274 397.597H90.3062V377.381H68.6274V397.597ZM68.6274 376.55H90.3062V356.334H68.6274V376.55ZM68.6274 355.503H90.3062V335.287H68.6274V355.503ZM68.6274 334.456H90.3062V314.24H68.6274V334.456ZM68.6274 313.409H90.3062V293.193H68.6274V313.409ZM68.6274 292.362H90.3062V272.146H68.6274V292.362ZM68.6274 271.315H90.3062V251.1H68.6274V271.315ZM68.6274 250.268H90.3062V230.052H68.6274V250.268ZM68.6274 229.221H90.3062V209.005H68.6274V229.221ZM68.6274 208.174H90.3062V187.958H68.6274V208.174ZM68.6274 187.127H90.3062V166.912H68.6274V187.127ZM68.6274 166.08H90.3062V145.864H68.6274V166.08ZM68.6274 145.033H90.3062V124.818H68.6274V145.033ZM68.6274 123.986H90.3062V103.771H68.6274V123.986ZM68.6274 102.939H90.3062V82.7236H68.6274V102.939ZM68.6274 81.8921H90.3062V61.6767H68.6274V81.8921ZM91.1376 61.6767V81.8921H112.818V61.6767H91.1376ZM113.649 61.6767V81.8921H135.329V61.6767H113.649ZM136.16 61.6767V81.8921H157.839V61.6767H136.16ZM158.671 61.6767V81.8921H180.351V61.6767H158.671ZM181.182 61.6767V81.8921H202.862V61.6767H181.182ZM202.862 82.7236H181.182V102.939H202.862V82.7236ZM202.862 103.771H181.182V123.986H202.862V103.771ZM202.862 124.818H181.182V145.033H202.862V124.818ZM202.862 145.864H181.182V166.08H202.862V145.864ZM202.862 166.912H181.182V187.127H202.862V166.912ZM202.862 187.958H181.182V208.174H202.862V187.958ZM202.862 209.005H181.182V229.221H202.862V209.005ZM202.862 230.052H181.182V250.268H202.862V230.052ZM202.862 251.1H181.182V271.315H202.862V251.1ZM202.862 272.146H181.182V292.362H202.862V272.146ZM202.862 293.193H181.182V313.409H202.862V293.193ZM202.862 314.24H181.182V334.456H202.862V314.24ZM202.862 335.287H181.182V355.503H202.862V335.287ZM202.862 356.334H181.182V376.55H202.862V356.334ZM202.862 377.381H181.182V397.597H202.862V377.381ZM202.862 398.428H181.182V418.644H202.862V398.428ZM202.862 419.475H181.182V439.69H202.862V419.475ZM202.862 440.522H181.182L181.182 460.738H202.862L202.862 440.522ZM202.862 461.569H181.182V481.785H202.862V461.569ZM202.862 482.616H181.182V502.832H202.862V482.616ZM202.862 503.663H181.182V523.878H202.862V503.663ZM202.862 524.71H181.182V544.926H202.862V524.71ZM202.862 545.757H181.182V565.972H202.862V545.757ZM202.862 566.804H181.182V587.019H202.862V566.804ZM202.862 587.851H181.182V608.066H202.862V587.851ZM202.862 608.897H181.182V629.113H202.862V608.897ZM202.862 629.945H181.182V650.16L202.862 650.16V629.945ZM202.862 650.991L181.182 650.991V671.207L202.862 671.207V650.991ZM202.862 672.038L181.182 672.038V692.254L202.862 692.254V672.038ZM202.862 693.085L181.182 693.085V713.301L202.862 713.301V693.085ZM202.862 714.132L181.182 714.132V734.347L202.862 734.347V714.132ZM202.862 735.179L181.182 735.179V755.394H202.862V735.179ZM202.862 756.225L181.182 756.225V776.441H202.862V756.225ZM202.862 777.273H181.182V797.488H202.862V777.273ZM202.862 798.32H181.182V818.535H202.862V798.32ZM180.351 818.535V798.32L158.67 798.32V818.535H180.351ZM157.839 818.535V798.32H136.16V818.535L157.839 818.535ZM135.329 818.535V798.32H113.649V818.535H135.329ZM112.818 818.535V798.32L91.1376 798.32V818.535H112.818ZM91.1376 797.488H112.818V777.273L91.1376 777.273V797.488ZM91.1376 776.441H112.818V756.225H91.1376V776.441ZM91.1376 755.394H112.818V735.179H91.1376V755.394ZM91.1376 734.347H112.818V714.132H91.1376V734.347ZM91.1376 713.301H112.818V693.085H91.1376V713.301ZM91.1376 692.254H112.818V672.038H91.1376V692.254ZM91.1376 671.207H112.818V650.991H91.1376V671.207ZM91.1376 650.16H112.818V629.945H91.1376V650.16ZM91.1376 629.113H112.818V608.897L91.1376 608.897V629.113ZM91.1376 608.066H112.818V587.851L91.1376 587.851V608.066ZM91.1376 587.019H112.818V566.804L91.1376 566.804V587.019ZM91.1376 565.972H112.818V545.757L91.1376 545.757V565.972ZM91.1376 544.925H112.818V524.71L91.1376 524.71V544.925ZM91.1376 523.878H112.818V503.663L91.1376 503.663V523.878ZM91.1376 502.832H112.818V482.616L91.1376 482.616V502.832ZM91.1376 481.785H112.818V461.569L91.1376 461.569V481.785ZM91.1376 460.738H112.818L112.818 440.522L91.1376 440.522L91.1376 460.738ZM91.1376 439.69H112.818V419.475L91.1376 419.475V439.69ZM91.1376 418.644H112.818V398.428L91.1376 398.428V418.644ZM91.1376 397.597H112.818V377.381H91.1376V397.597ZM91.1376 376.55H112.818V356.334H91.1376V376.55ZM91.1376 355.503H112.818V335.287H91.1376V355.503ZM91.1376 334.456H112.818V314.24H91.1376V334.456ZM91.1376 313.409H112.818V293.193H91.1376V313.409ZM91.1376 292.362H112.818V272.146H91.1376V292.362ZM91.1376 271.315H112.818V251.1H91.1376V271.315ZM91.1376 250.268H112.818V230.052H91.1376V250.268ZM91.1376 229.221H112.818V209.005H91.1376V229.221ZM91.1376 208.174H112.818V187.958H91.1376V208.174ZM91.1376 187.127H112.818V166.912H91.1376V187.127ZM91.1376 166.08H112.818V145.864H91.1376V166.08ZM91.1376 145.033H112.818V124.818H91.1376V145.033ZM91.1376 123.986H112.818V103.771H91.1376V123.986ZM91.1376 102.939H112.818V82.7236H91.1376V102.939ZM113.649 82.7236V102.939H135.329V82.7236H113.649ZM136.16 82.7236V102.939H157.839V82.7236H136.16ZM158.671 82.7236V102.939H180.351V82.7236H158.671ZM180.351 103.771H158.671V123.986H180.351V103.771ZM180.351 124.818H158.671V145.033H180.351V124.818ZM180.351 145.864H158.671V166.08H180.351V145.864ZM180.351 166.912H158.671V187.127H180.351V166.912ZM180.351 187.958H158.671V208.174H180.351V187.958ZM180.351 209.005H158.671V229.221H180.351V209.005ZM180.351 230.052H158.671V250.268H180.351V230.052ZM180.351 251.1H158.671V271.315H180.351V251.1ZM180.351 272.146H158.671V292.362H180.351V272.146ZM180.351 293.193H158.671V313.409H180.351V293.193ZM180.351 314.24H158.671V334.456H180.351V314.24ZM180.351 335.287H158.671V355.503H180.351V335.287ZM180.351 356.334H158.671V376.55H180.351V356.334ZM180.351 377.381L158.671 377.381V397.597L180.351 397.597V377.381ZM180.351 398.428H158.671V418.644L180.351 418.644V398.428ZM180.351 419.475H158.671V439.69L180.351 439.69V419.475ZM180.351 440.522H158.671L158.67 460.738L180.351 460.738L180.351 440.522ZM180.351 461.569H158.67V481.785L180.351 481.785V461.569ZM180.351 482.616H158.67V502.832L180.351 502.832V482.616ZM180.351 503.663H158.67V523.878L180.351 523.878V503.663ZM180.351 524.71H158.67V544.925L180.351 544.926V524.71ZM180.351 545.757H158.67V565.972L180.351 565.972V545.757ZM180.351 566.804H158.67V587.019L180.351 587.019V566.804ZM180.351 587.851H158.67V608.066L180.351 608.066V587.851ZM180.351 608.897H158.67V629.113L180.351 629.113V608.897ZM180.351 629.945L158.67 629.945V650.16H180.351V629.945ZM180.351 650.991H158.67V671.207H180.351V650.991ZM180.351 672.038H158.67V692.254H180.351V672.038ZM180.351 693.085H158.67V713.301H180.351V693.085ZM180.351 714.132H158.67V734.347H180.351V714.132ZM180.351 735.179H158.67V755.394L180.351 755.394V735.179ZM180.351 756.225H158.67V776.441H180.351V756.225ZM180.351 777.273L158.67 777.273V797.488H180.351V777.273ZM157.839 797.488V777.273H136.16V797.488L157.839 797.488ZM135.329 797.488V777.273H113.649V797.488H135.329ZM113.649 776.441H135.329V756.225H113.649V776.441ZM113.649 755.394H135.329V735.179H113.649V755.394ZM113.649 734.347H135.329V714.132H113.649V734.347ZM113.649 713.301H135.329V693.085H113.649V713.301ZM113.649 692.254H135.329V672.038H113.649V692.254ZM113.649 671.207H135.329V650.991H113.649V671.207ZM113.649 650.16H135.329V629.945H113.649V650.16ZM113.649 629.113H135.329V608.897H113.649V629.113ZM113.649 608.066H135.329V587.851H113.649V608.066ZM113.649 587.019H135.329V566.804H113.649V587.019ZM113.649 565.972H135.329V545.757H113.649V565.972ZM113.649 544.925H135.329V524.71H113.649V544.925ZM113.649 523.878H135.329V503.663H113.649V523.878ZM113.649 502.832H135.329V482.616H113.649V502.832ZM113.649 481.785H135.329V461.569H113.649V481.785ZM113.649 460.738H135.329L135.329 440.522H113.649L113.649 460.738ZM113.649 439.69H135.329V419.475H113.649V439.69ZM113.649 418.644H135.329V398.428H113.649V418.644ZM113.649 397.597H135.329V377.381H113.649V397.597ZM113.649 376.55H135.329V356.334H113.649V376.55ZM113.649 355.503H135.329V335.287H113.649V355.503ZM113.649 334.456H135.329V314.24H113.649V334.456ZM113.649 313.409H135.329V293.193H113.649V313.409ZM113.649 292.362H135.329V272.146H113.649V292.362ZM113.649 271.315H135.329V251.1H113.649V271.315ZM113.649 250.268H135.329V230.052H113.649V250.268ZM113.649 229.221H135.329V209.005H113.649V229.221ZM113.649 208.174H135.329V187.958H113.649V208.174ZM113.649 187.127H135.329V166.912H113.649V187.127ZM113.649 166.08H135.329V145.864H113.649V166.08ZM113.649 145.033H135.329V124.818H113.649V145.033ZM113.649 123.986H135.329V103.771H113.649V123.986ZM136.16 103.771V123.986H157.839V103.771H136.16ZM157.839 124.818H136.16V145.033H157.839V124.818ZM157.839 145.864H136.16V166.08H157.839V145.864ZM157.839 166.912H136.16V187.127H157.839V166.912ZM157.839 187.958H136.16V208.174H157.839V187.958ZM157.839 209.005H136.16V229.221H157.839V209.005ZM157.839 230.052H136.16V250.268H157.839V230.052ZM157.839 251.1H136.16V271.315H157.839V251.1ZM157.839 272.146H136.16V292.362H157.839V272.146ZM157.839 293.193H136.16V313.409H157.839V293.193ZM157.839 314.24H136.16V334.456H157.839V314.24ZM157.839 335.287H136.16V355.503H157.839V335.287ZM157.839 356.334H136.16V376.55H157.839V356.334ZM157.839 377.381H136.16V397.597H157.839V377.381ZM157.839 398.428H136.16V418.644H157.839V398.428ZM157.839 419.475H136.16V439.69H157.839V419.475ZM157.839 440.522H136.16L136.16 460.738H157.839L157.839 440.522ZM157.839 461.569H136.16V481.785H157.839V461.569ZM157.839 482.616H136.16V502.832H157.839V482.616ZM157.839 503.663H136.16V523.878H157.839V503.663ZM157.839 524.71H136.16V544.925H157.839V524.71ZM157.839 545.757H136.16V565.972H157.839V545.757ZM157.839 566.804H136.16V587.019H157.839V566.804ZM157.839 587.851H136.16V608.066H157.839V587.851ZM157.839 608.897H136.16V629.113H157.839V608.897ZM157.839 629.945H136.16V650.16H157.839V629.945ZM157.839 650.991H136.16V671.207H157.839V650.991ZM157.839 672.038H136.16V692.254H157.839V672.038ZM157.839 693.085H136.16V713.301H157.839V693.085ZM157.839 714.132H136.16V734.347H157.839V714.132ZM157.839 735.179H136.16V755.394H157.839V735.179ZM157.839 756.225H136.16V776.441L157.839 776.441V756.225ZM316.248 19.5827V39.798L337.928 39.7981V19.5828L316.248 19.5827ZM338.759 19.5828V39.7981H360.438V19.5828H338.759ZM361.27 19.5828V39.7981H382.951V19.5828H361.27ZM383.782 19.5828V39.7981H405.462V19.5828H383.782ZM406.293 19.5828V39.7981H427.972V19.5828H406.293ZM428.803 19.5828V39.7981H450.483V19.5828H428.803ZM451.314 19.5828V39.7981H472.994V19.5828H451.314ZM473.825 19.5828V39.7981H495.505V19.5828H473.825ZM496.337 19.5828V39.7981H518.015V19.5828H496.337ZM518.847 19.5828V39.7981H540.527V19.5828H518.847ZM541.358 19.5828V39.7981H563.038V19.5828H541.358ZM563.87 19.5828V39.7981H585.548V19.5828H563.87ZM586.38 19.5828V39.7981H608.06V19.5828H586.38ZM608.891 19.5828V39.7981H630.572V19.5828H608.891ZM630.572 40.6295H608.891L608.891 60.8453H630.572L630.572 40.6295ZM630.572 61.6768H608.891V81.8922H630.572V61.6768ZM630.572 82.7236H608.891V102.939H630.572L630.572 82.7236ZM630.572 103.771H608.891L608.891 123.986H630.572V103.771ZM630.572 124.818H608.891V145.033H630.572L630.572 124.818ZM630.572 145.864H608.891V166.08H630.572V145.864ZM630.572 166.912H608.891V187.127H630.572L630.572 166.912ZM630.572 187.959H608.891L608.891 208.174H630.572V187.959ZM630.572 209.005H608.891V229.221H630.572L630.572 209.005ZM630.572 230.052H608.891V250.268H630.572V230.052ZM630.572 251.1H608.891V271.315H630.572L630.572 251.1ZM630.572 272.146H608.891L608.891 292.362H630.572L630.572 272.146ZM630.572 293.193H608.891V313.409H630.572V293.193ZM630.572 314.24H608.891V334.456H630.572L630.572 314.24ZM630.572 335.287H608.891V355.503H630.572V335.287ZM630.572 356.334H608.891L608.891 376.55H630.572L630.572 356.334ZM630.572 377.381H608.891V397.597H630.572V377.381ZM630.572 398.428H608.891V418.644H630.572L630.572 398.428ZM630.572 419.475H608.891V439.69H630.572V419.475ZM630.572 440.522H608.891L608.891 460.738H630.572L630.572 440.522ZM630.572 461.569H608.891V481.785H630.572V461.569ZM630.572 482.616H608.891V502.832H630.572L630.572 482.616ZM630.572 503.663H608.891V523.878H630.572V503.663ZM630.572 524.71H608.891L608.891 544.926H630.572L630.572 524.71ZM630.572 545.757H608.891V565.972H630.572L630.572 545.757ZM630.572 566.804H608.891V587.019H630.572V566.804ZM630.572 587.851H608.891V608.066H630.572L630.572 587.851ZM630.572 608.897H608.891L608.891 629.113H630.572V608.897ZM630.572 629.945H608.891V650.16H630.572L630.572 629.945ZM630.572 650.992H608.891V671.207H630.572V650.992ZM630.572 672.039H608.891V692.254H630.572L630.572 672.039ZM630.572 693.085H608.891V713.301H630.572V693.085ZM630.572 714.132H608.891V734.348H630.572L630.572 714.132ZM630.572 735.179H608.891V755.394H630.572V735.179ZM630.572 756.225H608.891L608.891 776.441L630.572 776.441L630.572 756.225ZM630.572 777.273L608.891 777.273V797.488L630.572 797.488V777.273ZM630.572 798.32L608.891 798.32V818.535L630.572 818.535L630.572 798.32ZM630.572 819.366L608.891 819.366V839.582H630.572L630.572 819.366ZM630.572 840.413H608.891L608.891 860.629H630.572V840.413ZM630.572 861.461H608.891V881.676L630.572 881.676L630.572 861.461ZM608.06 881.676V861.461L586.38 861.461V881.676L608.06 881.676ZM585.548 881.676V861.461L563.87 861.461V881.676L585.548 881.676ZM563.038 881.676V861.461H541.358V881.676L563.038 881.676ZM540.527 881.676V861.461L518.847 861.461V881.676L540.527 881.676ZM518.015 881.676V861.461L496.337 861.461V881.676L518.015 881.676ZM495.505 881.676V861.461L473.825 861.461V881.676L495.505 881.676ZM472.994 881.676V861.461H451.314V881.676L472.994 881.676ZM450.483 881.676V861.461L428.803 861.461V881.676L450.483 881.676ZM427.972 881.676V861.461L406.293 861.461V881.676L427.972 881.676ZM405.462 881.676V861.461H383.782V881.676L405.462 881.676ZM382.951 881.676V861.461L361.27 861.461V881.676L382.951 881.676ZM360.438 881.676V861.461L338.759 861.461V881.676L360.438 881.676ZM337.928 881.676V861.461H316.248V881.676L337.928 881.676ZM316.248 860.629L337.928 860.629V840.413L316.248 840.413V860.629ZM316.248 839.582H337.928V819.366H316.248V839.582ZM316.248 818.535L337.928 818.535V798.32H316.248V818.535ZM316.248 797.488L337.928 797.488V777.273H316.248V797.488ZM316.248 776.441L337.928 776.441V756.225L316.248 756.225V776.441ZM316.248 755.394H337.928V735.179L316.248 735.179V755.394ZM316.248 734.347L337.928 734.348V714.132L316.248 714.132V734.347ZM316.248 713.301L337.928 713.301V693.085L316.248 693.085V713.301ZM316.248 692.254L337.928 692.254V672.038L316.248 672.038V692.254ZM316.248 671.207L337.928 671.207V650.991L316.248 650.991V671.207ZM316.248 650.16L337.928 650.16V629.945H316.248V650.16ZM316.248 629.113H337.928V608.897L316.248 608.897V629.113ZM316.248 608.066H337.928V587.851L316.248 587.851V608.066ZM316.248 587.019H337.928V566.804L316.248 566.804V587.019ZM316.248 565.972H337.928V545.757L316.248 545.757V565.972ZM316.248 544.926H337.928V524.71L316.248 524.71V544.926ZM316.248 523.878H337.928V503.663L316.248 503.663V523.878ZM316.248 502.832H337.928V482.616L316.248 482.616V502.832ZM316.248 481.785H337.928V461.569L316.248 461.569V481.785ZM316.248 460.738H337.928L337.928 440.522L316.248 440.522L316.248 460.738ZM316.248 439.69H337.928V419.475L316.248 419.475V439.69ZM316.248 418.644H337.928V398.428L316.248 398.428V418.644ZM316.248 397.597H337.928V377.381H316.248V397.597ZM316.248 376.55L337.928 376.55V356.334L316.248 356.334V376.55ZM316.248 355.503L337.928 355.503V335.287L316.248 335.287V355.503ZM316.248 334.456L337.928 334.456V314.24L316.248 314.24V334.456ZM316.248 313.409L337.928 313.409V293.193L316.248 293.193V313.409ZM316.248 292.362L337.928 292.362V272.146L316.248 272.146V292.362ZM316.248 271.315L337.928 271.315V251.1L316.248 251.1V271.315ZM316.248 250.268L337.928 250.268V230.052L316.248 230.052V250.268ZM316.248 229.221L337.928 229.221V209.005L316.248 209.005V229.221ZM316.248 208.174L337.928 208.174V187.959L316.248 187.958V208.174ZM316.248 187.127L337.928 187.127V166.912L316.248 166.912V187.127ZM316.248 166.08L337.928 166.08V145.864L316.248 145.864V166.08ZM316.248 145.033L337.928 145.033V124.818L316.248 124.818V145.033ZM316.248 123.986L337.928 123.986V103.771L316.248 103.771V123.986ZM316.248 102.939L337.928 102.939V82.7236L316.248 82.7236V102.939ZM316.248 81.8921L337.928 81.8922V61.6768L316.248 61.6767V81.8921ZM316.248 60.8453L337.928 60.8453V40.6295L316.248 40.6295V60.8453ZM338.759 40.6295V60.8453H360.438V40.6295H338.759ZM361.27 40.6295V60.8453H382.951V40.6295H361.27ZM383.782 40.6295V60.8453H405.462V40.6295H383.782ZM406.293 40.6295V60.8453H427.972V40.6295H406.293ZM428.803 40.6295V60.8453H450.483V40.6295H428.803ZM451.314 40.6295V60.8453H472.994V40.6295H451.314ZM473.825 40.6295V60.8453H495.505V40.6295H473.825ZM496.337 40.6295V60.8453H518.015V40.6295H496.337ZM518.847 40.6295V60.8453H540.527V40.6295H518.847ZM541.358 40.6295V60.8453H563.038V40.6295H541.358ZM563.87 40.6295V60.8453H585.548V40.6295H563.87ZM586.38 40.6295V60.8453H608.06L608.06 40.6295H586.38ZM608.06 61.6768H586.38L586.38 81.8922H608.06V61.6768ZM608.06 82.7236H586.38V102.939H608.06V82.7236ZM608.06 103.771H586.38V123.986H608.06V103.771ZM608.06 124.818H586.38V145.033H608.06L608.06 124.818ZM608.06 145.864H586.38V166.08H608.06V145.864ZM608.06 166.912H586.38V187.127H608.06V166.912ZM608.06 187.959H586.38V208.174H608.06V187.959ZM608.06 209.005H586.38L586.38 229.221H608.06L608.06 209.005ZM608.06 230.052H586.38V250.268H608.06V230.052ZM608.06 251.1H586.38V271.315H608.06V251.1ZM608.06 272.146H586.38V292.362H608.06V272.146ZM608.06 293.193H586.38V313.409H608.06V293.193ZM608.06 314.24H586.38V334.456H608.06V314.24ZM608.06 335.287H586.38V355.503H608.06V335.287ZM608.06 356.334H586.38L586.38 376.55H608.06V356.334ZM608.06 377.381H586.38V397.597H608.06V377.381ZM608.06 398.428H586.38V418.644H608.06L608.06 398.428ZM608.06 419.475H586.38V439.69H608.06V419.475ZM608.06 440.522H586.38V460.738H608.06V440.522ZM608.06 461.569H586.38V481.785H608.06V461.569ZM608.06 482.616H586.38V502.832H608.06L608.06 482.616ZM608.06 503.663H586.38L586.38 523.878H608.06V503.663ZM608.06 524.71H586.38V544.926H608.06V524.71ZM608.06 545.757H586.38V565.972H608.06V545.757ZM608.06 566.804H586.38V587.019H608.06L608.06 566.804ZM608.06 587.851H586.38V608.066H608.06V587.851ZM608.06 608.897H586.38V629.113H608.06V608.897ZM608.06 629.945H586.38V650.16L608.06 650.16V629.945ZM608.06 650.992L586.38 650.992V671.207L608.06 671.207V650.992ZM608.06 672.039L586.38 672.039V692.254L608.06 692.254V672.039ZM608.06 693.085L586.38 693.085V713.301L608.06 713.301V693.085ZM608.06 714.132L586.38 714.132V734.348L608.06 734.348V714.132ZM608.06 735.179L586.38 735.179V755.394L608.06 755.394V735.179ZM608.06 756.225L586.38 756.225V776.441H608.06L608.06 756.225ZM608.06 777.273H586.38V797.488H608.06V777.273ZM608.06 798.32H586.38V818.535H608.06V798.32ZM608.06 819.366H586.38L586.38 839.582L608.06 839.582V819.366ZM608.06 840.413L586.38 840.413V860.629L608.06 860.629L608.06 840.413ZM585.548 860.629V840.413L563.87 840.413V860.629L585.548 860.629ZM563.038 860.629V840.413L541.358 840.413V860.629L563.038 860.629ZM540.527 860.629V840.413H518.847V860.629H540.527ZM518.015 860.629V840.413L496.337 840.413V860.629L518.015 860.629ZM495.505 860.629V840.413L473.825 840.413V860.629L495.505 860.629ZM472.994 860.629V840.413L451.314 840.413V860.629L472.994 860.629ZM450.483 860.629V840.413H428.803V860.629H450.483ZM427.972 860.629V840.413L406.293 840.413V860.629L427.972 860.629ZM405.462 860.629V840.413L383.782 840.413V860.629L405.462 860.629ZM382.951 860.629V840.413H361.27V860.629H382.951ZM360.438 860.629V840.413L338.759 840.413V860.629L360.438 860.629ZM338.759 839.582L360.438 839.582V819.366L338.759 819.366V839.582ZM338.759 818.535H360.438V798.32L338.759 798.32V818.535ZM338.759 797.488H360.438V777.273L338.759 777.273V797.488ZM338.759 776.441H360.438V756.225H338.759V776.441ZM338.759 755.394H360.438V735.179H338.759V755.394ZM338.759 734.348H360.438V714.132H338.759V734.348ZM338.759 713.301H360.438V693.085H338.759V713.301ZM338.759 692.254H360.438V672.038H338.759V692.254ZM338.759 671.207H360.438V650.991H338.759V671.207ZM338.759 650.16H360.438V629.945H338.759V650.16ZM338.759 629.113H360.438V608.897H338.759V629.113ZM338.759 608.066H360.438V587.851H338.759V608.066ZM338.759 587.019H360.438V566.804H338.759V587.019ZM338.759 565.972H360.438V545.757H338.759V565.972ZM338.759 544.926H360.438V524.71H338.759V544.926ZM338.759 523.878H360.438V503.663H338.759V523.878ZM338.759 502.832H360.438V482.616H338.759V502.832ZM338.759 481.785H360.438V461.569H338.759V481.785ZM338.759 460.738H360.438L360.438 440.522H338.759L338.759 460.738ZM338.759 439.69H360.438V419.475H338.759V439.69ZM338.759 418.644H360.438V398.428H338.759V418.644ZM338.759 397.597H360.438V377.381H338.759V397.597ZM338.759 376.55H360.438V356.334H338.759V376.55ZM338.759 355.503H360.438V335.287H338.759V355.503ZM338.759 334.456H360.438V314.24H338.759V334.456ZM338.759 313.409H360.438V293.193H338.759V313.409ZM338.759 292.362H360.438V272.146H338.759V292.362ZM338.759 271.315H360.438V251.1H338.759V271.315ZM338.759 250.268H360.438V230.052H338.759V250.268ZM338.759 229.221H360.438V209.005H338.759V229.221ZM338.759 208.174H360.438V187.959H338.759V208.174ZM338.759 187.127H360.438V166.912H338.759V187.127ZM338.759 166.08H360.438V145.864H338.759V166.08ZM338.759 145.033H360.438V124.818H338.759V145.033ZM338.759 123.986H360.438V103.771H338.759V123.986ZM338.759 102.939H360.438V82.7236H338.759V102.939ZM338.759 81.8922H360.438V61.6768H338.759V81.8922ZM361.27 61.6768V81.8922H382.951V61.6768H361.27ZM383.782 61.6768V81.8922H405.462V61.6768H383.782ZM406.293 61.6768V81.8922H427.972V61.6768H406.293ZM428.803 61.6768V81.8922H450.483V61.6768H428.803ZM451.314 61.6768V81.8922H472.994V61.6768H451.314ZM473.825 61.6768V81.8922H495.505V61.6768H473.825ZM496.337 61.6768V81.8922H518.015V61.6768H496.337ZM518.847 61.6768V81.8922H540.527L540.527 61.6768H518.847ZM541.358 61.6768V81.8922H563.038L563.038 61.6768H541.358ZM563.87 61.6768V81.8922H585.548V61.6768H563.87ZM585.548 82.7236H563.87L563.87 102.939H585.548V82.7236ZM585.548 103.771H563.87V123.986H585.548L585.548 103.771ZM585.548 124.818H563.87V145.033H585.548V124.818ZM585.548 145.864H563.87V166.08H585.548V145.864ZM585.548 166.912H563.87V187.127H585.548V166.912ZM585.548 187.959H563.87V208.174H585.548V187.959ZM585.548 209.005H563.87V229.221H585.548V209.005ZM585.548 230.052H563.87V250.268H585.548V230.052ZM585.548 251.1H563.87L563.87 271.315H585.548V251.1ZM585.548 272.146H563.87V292.362H585.548V272.146ZM585.548 293.193H563.87V313.409H585.548V293.193ZM585.548 314.24H563.87V334.456H585.548V314.24ZM585.548 335.287H563.87V355.503H585.548L585.548 335.287ZM585.548 356.334H563.87V376.55H585.548V356.334ZM585.548 377.381H563.87V397.597H585.548V377.381ZM585.548 398.428H563.87V418.644H585.548V398.428ZM585.548 419.475H563.87V439.69H585.548V419.475ZM585.548 440.522H563.87L563.87 460.738H585.548V440.522ZM585.548 461.569H563.87V481.785H585.548V461.569ZM585.548 482.616H563.87V502.832H585.548V482.616ZM585.548 503.663H563.87V523.878H585.548V503.663ZM585.548 524.71H563.87V544.926H585.548V524.71ZM585.548 545.757H563.87V565.972H585.548L585.548 545.757ZM585.548 566.804H563.87V587.019H585.548V566.804ZM585.548 587.851H563.87V608.066H585.548V587.851ZM585.548 608.897H563.87L563.87 629.113H585.548V608.897ZM585.548 629.945H563.87V650.16H585.548V629.945ZM585.548 650.992H563.87V671.207H585.548V650.992ZM585.548 672.039H563.87V692.254H585.548V672.039ZM585.548 693.085H563.87V713.301H585.548V693.085ZM585.548 714.132H563.87V734.348H585.548V714.132ZM585.548 735.179H563.87V755.394H585.548V735.179ZM585.548 756.225H563.87V776.441L585.548 776.441V756.225ZM585.548 777.273H563.87V797.488L585.548 797.488L585.548 777.273ZM585.548 798.32H563.87L563.87 818.535L585.548 818.535V798.32ZM585.548 819.366H563.87V839.582L585.548 839.582V819.366ZM563.038 839.582L563.038 819.366L541.358 819.366V839.582H563.038ZM540.527 839.582L540.527 819.366H518.847V839.582L540.527 839.582ZM518.015 839.582V819.366H496.337V839.582L518.015 839.582ZM495.505 839.582V819.366L473.825 819.366V839.582L495.505 839.582ZM472.994 839.582V819.366H451.314V839.582H472.994ZM450.483 839.582V819.366H428.803V839.582L450.483 839.582ZM427.972 839.582V819.366L406.293 819.366V839.582L427.972 839.582ZM405.462 839.582V819.366H383.782V839.582H405.462ZM382.951 839.582V819.366H361.27V839.582L382.951 839.582ZM361.27 818.535H382.951V798.32H361.27V818.535ZM361.27 797.488H382.951V777.273H361.27V797.488ZM361.27 776.441H382.951V756.225H361.27V776.441ZM361.27 755.394L382.951 755.394V735.179H361.27V755.394ZM361.27 734.348H382.951V714.132H361.27V734.348ZM361.27 713.301H382.951V693.085H361.27V713.301ZM361.27 692.254H382.951V672.038H361.27V692.254ZM361.27 671.207H382.951V650.991H361.27V671.207ZM361.27 650.16H382.951V629.945H361.27V650.16ZM361.27 629.113H382.951V608.897H361.27V629.113ZM361.27 608.066H382.951V587.851H361.27V608.066ZM361.27 587.019H382.951V566.804H361.27V587.019ZM361.27 565.972H382.951V545.757H361.27V565.972ZM361.27 544.926H382.951V524.71H361.27V544.926ZM361.27 523.878H382.951V503.663H361.27V523.878ZM361.27 502.832H382.951V482.616H361.27V502.832ZM361.27 481.785H382.951V461.569H361.27V481.785ZM361.27 460.738H382.951V440.522H361.27L361.27 460.738ZM361.27 439.69H382.951V419.475H361.27V439.69ZM361.27 418.644H382.951V398.428H361.27V418.644ZM361.27 397.597H382.951V377.381H361.27V397.597ZM361.27 376.55H382.951V356.334H361.27V376.55ZM361.27 355.503H382.951V335.287H361.27V355.503ZM361.27 334.456H382.951V314.24H361.27V334.456ZM361.27 313.409H382.951V293.193H361.27V313.409ZM361.27 292.362H382.951V272.146H361.27V292.362ZM361.27 271.315H382.951V251.1H361.27V271.315ZM361.27 250.268H382.951V230.052H361.27V250.268ZM361.27 229.221H382.951V209.005H361.27V229.221ZM361.27 208.174H382.951V187.959H361.27V208.174ZM361.27 187.127H382.951V166.912H361.27V187.127ZM361.27 166.08H382.951V145.864H361.27V166.08ZM361.27 145.033H382.951V124.818H361.27V145.033ZM361.27 123.986H382.951V103.771H361.27V123.986ZM361.27 102.939H382.951V82.7236H361.27V102.939ZM383.782 82.7236V102.939H405.462V82.7236H383.782ZM406.293 82.7236V102.939H427.972V82.7236H406.293ZM428.803 82.7236V102.939H450.483V82.7236H428.803ZM451.314 82.7236V102.939H472.994V82.7236H451.314ZM473.825 82.7236V102.939H495.505V82.7236H473.825ZM496.337 82.7236V102.939H518.015V82.7236H496.337ZM518.847 82.7236V102.939H540.527V82.7236H518.847ZM541.358 82.7236L541.358 102.939H563.038V82.7236H541.358ZM563.038 103.771H541.358V123.986H563.038V103.771ZM563.038 124.818H541.358V145.033H563.038V124.818ZM563.038 145.864H541.358V166.08H563.038V145.864ZM563.038 166.912H541.358V187.127H563.038V166.912ZM563.038 187.959H541.358V208.174H563.038V187.959ZM563.038 209.005H541.358V229.221H563.038L563.038 209.005ZM563.038 230.052H541.358V250.268H563.038V230.052ZM563.038 251.1H541.358L541.358 271.315H563.038V251.1ZM563.038 272.146H541.358V292.362H563.038V272.146ZM563.038 293.193H541.358V313.409H563.038V293.193ZM563.038 314.24H541.358V334.456H563.038V314.24ZM563.038 335.287H541.358V355.503H563.038V335.287ZM563.038 356.334H541.358V376.55H563.038L563.038 356.334ZM563.038 377.381H541.358V397.597H563.038V377.381ZM563.038 398.428L541.358 398.428V418.644H563.038V398.428ZM563.038 419.475L541.358 419.475V439.69H563.038V419.475ZM563.038 440.522L541.358 440.522L541.358 460.738H563.038V440.522ZM563.038 461.569L541.358 461.569V481.785H563.038V461.569ZM563.038 482.616L541.358 482.616V502.832H563.038V482.616ZM563.038 503.663L541.358 503.663V523.878H563.038L563.038 503.663ZM563.038 524.71L541.358 524.71V544.926H563.038V524.71ZM563.038 545.757L541.358 545.757V565.972H563.038V545.757ZM563.038 566.804L541.358 566.804V587.019H563.038V566.804ZM563.038 587.851L541.358 587.851V608.066H563.038V587.851ZM563.038 608.897L541.358 608.897L541.358 629.113H563.038V608.897ZM563.038 629.945H541.358V650.16H563.038V629.945ZM563.038 650.992H541.358V671.207H563.038V650.992ZM563.038 672.039H541.358V692.254H563.038V672.039ZM563.038 693.085H541.358V713.301H563.038V693.085ZM563.038 714.132H541.358V734.348H563.038V714.132ZM563.038 735.179H541.358V755.394H563.038V735.179ZM563.038 756.225H541.358V776.441H563.038V756.225ZM563.038 777.273L541.358 777.273V797.488H563.038V777.273ZM563.038 798.32L541.358 798.32L541.358 818.535H563.038V798.32ZM540.527 818.535V798.32H518.847V818.535H540.527ZM518.015 818.535V798.32H496.337V818.535L518.015 818.535ZM495.505 818.535V798.32L473.825 798.32V818.535H495.505ZM472.994 818.535V798.32H451.314V818.535H472.994ZM450.483 818.535V798.32H428.803V818.535L450.483 818.535ZM427.972 818.535V798.32L406.293 798.32V818.535H427.972ZM405.462 818.535V798.32H383.782V818.535L405.462 818.535ZM383.782 797.488L405.462 797.488V777.273H383.782V797.488ZM383.782 776.441L405.462 776.441V756.225H383.782V776.441ZM383.782 755.394H405.462V735.179H383.782V755.394ZM383.782 734.348H405.462V714.132H383.782V734.348ZM383.782 713.301H405.462V693.085H383.782V713.301ZM383.782 692.254H405.462V672.038H383.782V692.254ZM383.782 671.207H405.462V650.991H383.782V671.207ZM383.782 650.16H405.462V629.945H383.782V650.16ZM383.782 629.113H405.462V608.897H383.782V629.113ZM383.782 608.066H405.462V587.851H383.782V608.066ZM383.782 587.019H405.462V566.804H383.782V587.019ZM383.782 565.972H405.462V545.757H383.782V565.972ZM383.782 544.926H405.462V524.71H383.782V544.926ZM383.782 523.878H405.462V503.663H383.782V523.878ZM383.782 502.832H405.462V482.616H383.782V502.832ZM383.782 481.785H405.462V461.569H383.782V481.785ZM383.782 460.738H405.462V440.522H383.782L383.782 460.738ZM383.782 439.69H405.462V419.475H383.782V439.69ZM383.782 418.644H405.462V398.428H383.782V418.644ZM383.782 397.597H405.462V377.381H383.782V397.597ZM383.782 376.55H405.462V356.334H383.782V376.55ZM383.782 355.503H405.462V335.287H383.782V355.503ZM383.782 334.456H405.462V314.24H383.782V334.456ZM383.782 313.409H405.462V293.193H383.782V313.409ZM383.782 292.362H405.462V272.146H383.782V292.362ZM383.782 271.315H405.462V251.1H383.782V271.315ZM383.782 250.268H405.462V230.052H383.782V250.268ZM383.782 229.221H405.462L405.462 209.005H383.782V229.221ZM383.782 208.174H405.462V187.959H383.782V208.174ZM383.782 187.127H405.462V166.912H383.782V187.127ZM383.782 166.08H405.462V145.864H383.782V166.08ZM383.782 145.033H405.462V124.818H383.782V145.033ZM383.782 123.986H405.462V103.771H383.782V123.986ZM406.293 103.771V123.986H427.972V103.771H406.293ZM428.803 103.771V123.986H450.483V103.771H428.803ZM451.314 103.771V123.986H472.994V103.771H451.314ZM473.825 103.771V123.986H495.505V103.771H473.825ZM496.337 103.771V123.986H518.015L518.015 103.771H496.337ZM518.847 103.771V123.986H540.527V103.771H518.847ZM540.527 124.818H518.847V145.033H540.527V124.818ZM540.527 145.864H518.847L518.847 166.08H540.527V145.864ZM540.527 166.912H518.847V187.127H540.527V166.912ZM540.527 187.959H518.847V208.174H540.527V187.959ZM540.527 209.005H518.847V229.221H540.527L540.527 209.005ZM540.527 230.052H518.847V250.268H540.527V230.052ZM540.527 251.1H518.847V271.315H540.527V251.1ZM540.527 272.146H518.847V292.362H540.527V272.146ZM540.527 293.193H518.847V313.409H540.527V293.193ZM540.527 314.24H518.847V334.456H540.527V314.24ZM540.527 335.287H518.847V355.503H540.527V335.287ZM540.527 356.334H518.847V376.55H540.527L540.527 356.334ZM540.527 377.381H518.847V397.597H540.527V377.381ZM540.527 398.428H518.847V418.644H540.527V398.428ZM540.527 419.475H518.847V439.69H540.527V419.475ZM540.527 440.522H518.847L518.847 460.738H540.527V440.522ZM540.527 461.569H518.847V481.785H540.527V461.569ZM540.527 482.616H518.847V502.832H540.527V482.616ZM540.527 503.663H518.847V523.878H540.527L540.527 503.663ZM540.527 524.71H518.847V544.926H540.527V524.71ZM540.527 545.757H518.847V565.972H540.527V545.757ZM540.527 566.804H518.847V587.019H540.527V566.804ZM540.527 587.851H518.847V608.066H540.527V587.851ZM540.527 608.897H518.847V629.113H540.527V608.897ZM540.527 629.945H518.847V650.16H540.527V629.945ZM540.527 650.992H518.847V671.207H540.527V650.992ZM540.527 672.039H518.847V692.254H540.527V672.039ZM540.527 693.085H518.847V713.301H540.527V693.085ZM540.527 714.132H518.847V734.348H540.527V714.132ZM540.527 735.179H518.847L518.847 755.394H540.527V735.179ZM540.527 756.225H518.847V776.441H540.527V756.225ZM540.527 777.273H518.847V797.488H540.527V777.273ZM518.015 797.488L518.015 777.273H496.337V797.488L518.015 797.488ZM495.505 797.488V777.273L473.825 777.273V797.488H495.505ZM472.994 797.488V777.273H451.314V797.488H472.994ZM450.483 797.488V777.273H428.803V797.488L450.483 797.488ZM427.972 797.488V777.273L406.293 777.273V797.488H427.972ZM406.293 776.441H427.972V756.225H406.293V776.441ZM406.293 755.394H427.972V735.179H406.293L406.293 755.394ZM406.293 734.348H427.972V714.132H406.293V734.348ZM406.293 713.301H427.972V693.085H406.293V713.301ZM406.293 692.254H427.972V672.038H406.293V692.254ZM406.293 671.207H427.972V650.991H406.293V671.207ZM406.293 650.16H427.972V629.945H406.293V650.16ZM406.293 629.113H427.972V608.897H406.293V629.113ZM406.293 608.066H427.972V587.851H406.293V608.066ZM406.293 587.019H427.972V566.804H406.293V587.019ZM406.293 565.972H427.972V545.757H406.293V565.972ZM406.293 544.926H427.972V524.71H406.293V544.926ZM406.293 523.878H427.972V503.663H406.293V523.878ZM406.293 502.832H427.972V482.616H406.293V502.832ZM406.293 481.785H427.972V461.569H406.293V481.785ZM406.293 460.738H427.972V440.522H406.293L406.293 460.738ZM406.293 439.69H427.972V419.475H406.293V439.69ZM406.293 418.644H427.972V398.428H406.293V418.644ZM406.293 397.597H427.972V377.381H406.293V397.597ZM406.293 376.55H427.972V356.334H406.293V376.55ZM406.293 355.503H427.972V335.287H406.293V355.503ZM406.293 334.456H427.972V314.24H406.293V334.456ZM406.293 313.409H427.972V293.193H406.293V313.409ZM406.293 292.362H427.972V272.146H406.293V292.362ZM406.293 271.315H427.972V251.1H406.293V271.315ZM406.293 250.268H427.972V230.052H406.293V250.268ZM406.293 229.221H427.972L427.972 209.005H406.293V229.221ZM406.293 208.174H427.972V187.959H406.293V208.174ZM406.293 187.127H427.972V166.912H406.293V187.127ZM406.293 166.08H427.972V145.864H406.293L406.293 166.08ZM406.293 145.033H427.972V124.818H406.293V145.033ZM428.803 124.818V145.033H450.483V124.818H428.803ZM451.314 124.818V145.033H472.994V124.818H451.314ZM473.825 124.818V145.033H495.505V124.818H473.825ZM496.337 124.818V145.033H518.015V124.818H496.337ZM518.015 145.864H496.337L496.337 166.08H518.015V145.864ZM518.015 166.912H496.337V187.127H518.015V166.912ZM518.015 187.959H496.337V208.174H518.015V187.959ZM518.015 209.005H496.337V229.221H518.015V209.005ZM518.015 230.052H496.337V250.268H518.015V230.052ZM518.015 251.1H496.337V271.315H518.015V251.1ZM518.015 272.146H496.337V292.362H518.015V272.146ZM518.015 293.193H496.337V313.409H518.015V293.193ZM518.015 314.24H496.337V334.456H518.015V314.24ZM518.015 335.287H496.337V355.503H518.015L518.015 335.287ZM518.015 356.334H496.337V376.55H518.015V356.334ZM518.015 377.381H496.337V397.597H518.015V377.381ZM518.015 398.428H496.337V418.644H518.015V398.428ZM518.015 419.475H496.337V439.69H518.015V419.475ZM518.015 440.522H496.337L496.337 460.738H518.015V440.522ZM518.015 461.569H496.337V481.785H518.015V461.569ZM518.015 482.616H496.337V502.832H518.015V482.616ZM518.015 503.663H496.337V523.878H518.015V503.663ZM518.015 524.71H496.337V544.926H518.015V524.71ZM518.015 545.757H496.337V565.972H518.015L518.015 545.757ZM518.015 566.804H496.337V587.019H518.015V566.804ZM518.015 587.851H496.337V608.066H518.015V587.851ZM518.015 608.897H496.337V629.113H518.015V608.897ZM518.015 629.945H496.337V650.16H518.015V629.945ZM518.015 650.992H496.337V671.207H518.015V650.992ZM518.015 672.039H496.337V692.254H518.015V672.039ZM518.015 693.085H496.337V713.301H518.015V693.085ZM518.015 714.132H496.337V734.348H518.015V714.132ZM518.015 735.179H496.337L496.337 755.394H518.015V735.179ZM518.015 756.225H496.337V776.441L518.015 776.441V756.225ZM495.505 776.441V756.225H473.825V776.441H495.505ZM472.994 776.441V756.225L451.314 756.225V776.441H472.994ZM450.483 776.441V756.225H428.803V776.441L450.483 776.441ZM428.803 755.394H450.483V735.179H428.803L428.803 755.394ZM428.803 734.348H450.483V714.132H428.803V734.348ZM428.803 713.301H450.483V693.085H428.803V713.301ZM428.803 692.254H450.483V672.038H428.803V692.254ZM428.803 671.207H450.483V650.991H428.803V671.207ZM428.803 650.16H450.483V629.945H428.803V650.16ZM428.803 629.113H450.483V608.897H428.803V629.113ZM428.803 608.066H450.483V587.851H428.803V608.066ZM428.803 587.019H450.483V566.804H428.803V587.019ZM428.803 565.972H450.483V545.757H428.803V565.972ZM428.803 544.926H450.483V524.71H428.803V544.926ZM428.803 523.878H450.483V503.663H428.803V523.878ZM428.803 502.832H450.483V482.616H428.803V502.832ZM428.803 481.785H450.483V461.569H428.803V481.785ZM428.803 460.738H450.483V440.522H428.803L428.803 460.738ZM428.803 439.69H450.483V419.475H428.803V439.69ZM428.803 418.644H450.483V398.428H428.803V418.644ZM428.803 397.597H450.483V377.381H428.803V397.597ZM428.803 376.55H450.483V356.334H428.803V376.55ZM428.803 355.503H450.483V335.287H428.803V355.503ZM428.803 334.456H450.483V314.24H428.803V334.456ZM428.803 313.409H450.483V293.193H428.803V313.409ZM428.803 292.362H450.483V272.146H428.803V292.362ZM428.803 271.315H450.483V251.1H428.803V271.315ZM428.803 250.268H450.483V230.052H428.803V250.268ZM428.803 229.221H450.483L450.483 209.005H428.803V229.221ZM428.803 208.174H450.483V187.959H428.803V208.174ZM428.803 187.127H450.483V166.912H428.803V187.127ZM428.803 166.08H450.483V145.864H428.803L428.803 166.08ZM451.314 145.864L451.314 166.08H472.994V145.864H451.314ZM473.825 145.864L473.825 166.08H495.505V145.864H473.825ZM495.505 166.912H473.825V187.127H495.505V166.912ZM495.505 187.959H473.825V208.174H495.505V187.959ZM495.505 209.005H473.825V229.221H495.505L495.505 209.005ZM495.505 230.052H473.825V250.268H495.505V230.052ZM495.505 251.1H473.825V271.315H495.505V251.1ZM495.505 272.146H473.825V292.362H495.505V272.146ZM495.505 293.193H473.825V313.409H495.505V293.193ZM495.505 314.24H473.825V334.456H495.505V314.24ZM495.505 335.287H473.825V355.503H495.505V335.287ZM495.505 356.334H473.825V376.55H495.505V356.334ZM495.505 377.381L473.825 377.381V397.597L495.505 397.597V377.381ZM495.505 398.428H473.825V418.644L495.505 418.644V398.428ZM495.505 419.475H473.825V439.69L495.505 439.69V419.475ZM495.505 440.522H473.825L473.825 460.738L495.505 460.738V440.522ZM495.505 461.569H473.825V481.785L495.505 481.785V461.569ZM495.505 482.616H473.825V502.832L495.505 502.832V482.616ZM495.505 503.663H473.825V523.878L495.505 523.878V503.663ZM495.505 524.71H473.825V544.926L495.505 544.926V524.71ZM495.505 545.757H473.825V565.972L495.505 565.972V545.757ZM495.505 566.804H473.825V587.019L495.505 587.019V566.804ZM495.505 587.851H473.825V608.066L495.505 608.066V587.851ZM495.505 608.897H473.825V629.113L495.505 629.113V608.897ZM495.505 629.945L473.825 629.945V650.16H495.505V629.945ZM495.505 650.992H473.825V671.207H495.505V650.992ZM495.505 672.039H473.825V692.254H495.505V672.039ZM495.505 693.085H473.825V713.301H495.505V693.085ZM495.505 714.132H473.825V734.348H495.505V714.132ZM495.505 735.179H473.825L473.825 755.394L495.505 755.394V735.179ZM472.994 755.394V735.179L451.314 735.179L451.314 755.394H472.994ZM451.314 734.348L472.994 734.348V714.132L451.314 714.132V734.348ZM451.314 713.301L472.994 713.301V693.085L451.314 693.085V713.301ZM451.314 692.254L472.994 692.254V672.039L451.314 672.038V692.254ZM451.314 671.207L472.994 671.207V650.992L451.314 650.991V671.207ZM451.314 650.16L472.994 650.16V629.945H451.314V650.16ZM451.314 629.113H472.994V608.897H451.314V629.113ZM451.314 608.066H472.994V587.851H451.314V608.066ZM451.314 587.019H472.994V566.804H451.314V587.019ZM451.314 565.972H472.994V545.757H451.314V565.972ZM451.314 544.926H472.994V524.71H451.314V544.926ZM451.314 523.878H472.994V503.663H451.314V523.878ZM451.314 502.832H472.994V482.616H451.314V502.832ZM451.314 481.785H472.994V461.569H451.314V481.785ZM451.314 460.738H472.994V440.522H451.314L451.314 460.738ZM451.314 439.69H472.994V419.475H451.314V439.69ZM451.314 418.644H472.994V398.428H451.314V418.644ZM451.314 397.597H472.994V377.381H451.314V397.597ZM451.314 376.55H472.994V356.334H451.314V376.55ZM451.314 355.503H472.994V335.287H451.314V355.503ZM451.314 334.456H472.994V314.24H451.314V334.456ZM451.314 313.409H472.994V293.193H451.314V313.409ZM451.314 292.362H472.994V272.146H451.314V292.362ZM451.314 271.315H472.994V251.1H451.314V271.315ZM451.314 250.268H472.994V230.052H451.314V250.268ZM451.314 229.221H472.994L472.994 209.005H451.314V229.221ZM451.314 208.174H472.994V187.959H451.314V208.174ZM451.314 187.127H472.994V166.912H451.314V187.127Z" fill="url(#paint0_linear_505_10470)"/>
<defs>
<linearGradient id="paint0_linear_505_10470" x1="511.924" y1="661.996" x2="242.28" y2="501.938" gradientUnits="userSpaceOnUse">
<stop stop-color="#6B66C4" stop-opacity="0.04"/>
<stop offset="1" stop-color="#191388"/>
</linearGradient>
</defs>
</svg>
