<svg width="757" height="668" viewBox="0 0 757 668" fill="none" xmlns="http://www.w3.org/2000/svg">
<path d="M444.702 533.01L336.924 303.472L229.146 533.01C221.678 548.85 217.806 566.146 217.806 583.658C217.806 601.171 221.678 618.466 229.146 634.307C238.762 654.784 254.014 672.098 273.114 684.221C292.215 696.344 314.374 702.775 336.997 702.76C357.048 702.755 376.774 697.685 394.343 688.022C411.912 678.359 426.757 664.415 437.499 647.484C448.242 630.553 454.535 611.183 455.794 591.171C457.053 571.16 453.238 551.154 444.702 533.01Z" fill="#BC42B9"/>
<path d="M229.143 532.994L336.921 303.455L226.594 68.3827C212.698 40.5658 188.478 19.2838 159.105 9.08122C129.732 -1.12139 97.5338 0.563943 69.3865 13.7773C41.2391 26.9907 19.373 50.685 8.45729 79.8006C-2.45837 108.916 -1.5585 141.146 10.9648 169.607L229.434 634.218C221.932 618.409 218.015 601.137 217.965 583.638C217.915 566.139 221.732 548.846 229.143 532.994Z" fill="#CC99FF"/>
<path d="M229.143 532.994L336.921 303.455L226.594 68.3827C212.698 40.5658 188.478 19.2838 159.105 9.08122C129.732 -1.12139 97.5338 0.563943 69.3865 13.7773C41.2391 26.9907 19.373 50.685 8.45729 79.8006C-2.45837 108.916 -1.5585 141.146 10.9648 169.607L229.434 634.218C221.932 618.409 218.015 601.137 217.965 583.638C217.915 566.139 221.732 548.846 229.143 532.994Z" fill="#33CCFF"/>
<path d="M229.143 532.994L336.921 303.455L226.594 68.3827C212.698 40.5658 188.478 19.2838 159.105 9.08122C129.732 -1.12139 97.5338 0.563943 69.3865 13.7773C41.2391 26.9907 19.373 50.685 8.45729 79.8006C-2.45837 108.916 -1.5585 141.146 10.9648 169.607L229.434 634.218C221.932 618.409 218.015 601.137 217.965 583.638C217.915 566.139 221.732 548.846 229.143 532.994Z" fill="#6666CC"/>
<path d="M229.143 532.994L336.921 303.455L226.594 68.3827C212.698 40.5658 188.478 19.2838 159.105 9.08122C129.732 -1.12139 97.5338 0.563943 69.3865 13.7773C41.2391 26.9907 19.373 50.685 8.45729 79.8006C-2.45837 108.916 -1.5585 141.146 10.9648 169.607L229.434 634.218C221.932 618.409 218.015 601.137 217.965 583.638C217.915 566.139 221.732 548.846 229.143 532.994Z" fill="#333333"/>
<path d="M229.143 532.994L336.921 303.455L226.594 68.3827C212.698 40.5658 188.478 19.2838 159.105 9.08122C129.732 -1.12139 97.5338 0.563943 69.3865 13.7773C41.2391 26.9907 19.373 50.685 8.45729 79.8006C-2.45837 108.916 -1.5585 141.146 10.9648 169.607L229.434 634.218C221.932 618.409 218.015 601.137 217.965 583.638C217.915 566.139 221.732 548.846 229.143 532.994Z" fill="#FF66CC"/>
<path d="M229.143 532.994L336.921 303.455L226.594 68.3827C212.698 40.5658 188.478 19.2838 159.105 9.08122C129.732 -1.12139 97.5338 0.563943 69.3865 13.7773C41.2391 26.9907 19.373 50.685 8.45729 79.8006C-2.45837 108.916 -1.5585 141.146 10.9648 169.607L229.434 634.218C221.932 618.409 218.015 601.137 217.965 583.638C217.915 566.139 221.732 548.846 229.143 532.994Z" fill="#CC99FF"/>
<path d="M662.877 169.667C671.397 151.521 675.197 131.518 673.925 111.512C672.653 91.5054 666.351 72.1443 655.602 55.2232C644.853 38.302 630.006 24.3687 612.437 14.7151C594.868 5.06145 575.146 0 555.099 0C535.053 0 515.331 5.06145 497.762 14.7151C480.193 24.3687 465.346 38.302 454.597 55.2232C443.848 72.1443 437.545 91.5054 436.274 111.512C435.002 131.518 438.802 151.521 447.321 169.667L555.099 399.205L662.877 169.667Z" fill="#6B66C4"/>
<path d="M447.317 169.652C439.849 153.812 435.976 136.516 435.976 119.004C435.976 101.492 439.849 84.1958 447.317 68.3555L336.917 303.501L444.695 533.039C452.178 548.875 456.058 566.173 456.058 583.688C456.058 601.202 452.178 618.5 444.695 634.336L555.095 399.19L447.317 169.652Z" fill="#FF6FBC"/>
<path d="M665.498 533.01L773.276 303.472L880.836 533.01C888.304 548.85 892.176 566.146 892.176 583.658C892.176 601.171 888.304 618.466 880.836 634.307C867.413 662.891 843.184 684.973 813.48 695.693C783.777 706.414 751.03 704.896 722.446 691.473C693.861 678.05 671.78 653.821 661.059 624.117C650.339 594.413 651.857 561.667 665.28 533.083L665.498 533.01Z" fill="#6B66C4"/>
<path d="M662.868 169.652C670.316 153.806 674.178 136.513 674.178 119.004C674.178 101.495 670.316 84.2014 662.868 68.3555L773.268 303.428L665.49 533.039C658.042 548.885 654.18 566.179 654.18 583.688C654.18 601.197 658.042 618.49 665.49 634.336L555.09 399.19L662.868 169.652Z" fill="#4CC8E9"/>
</svg>
